<?xml version="1.0" encoding="UTF-8"?>
<svg id="b" data-name="Layer 2" xmlns="http://www.w3.org/2000/svg" viewBox="0 0 293.37 198.89">
  <defs>
    <style>
      .d {
        fill: #16347e;
        stroke-width: 0px;
      }
    </style>
  </defs>
  <g id="c">
    <g>
      <path class="d" d="M57.33,0h1.19c3.46.35,2.6,4.89,5.67,5.77,4.09,1.99,8.41,4.57,10.05,9.08,1.62,4.69.8,9.97-.91,14.53-1.62,4.12-6.32,5.55-10.37,5.67-9.66.32-19.35-.73-29.01-.04-1.28.17-2.77.13-3.67,1.22-4.29,4.49-8.01,9.5-11.88,14.35-2.07,2.89-4.73,5.76-5.12,9.44.08,3.58,3.76,5.39,6.01,7.63,4.47,4.5,10.68,6.6,16.8,7.62,2.47.05,4.63-1.52,6.89-2.36,33.19-13.58,65.92-28.3,99.33-41.38,10.51-3.49,21.6-6.86,32.8-5.26,8.77,1.09,16.79,5.51,23.3,11.35,19.75,17.15,38.5,35.42,57.26,53.64,4.6,4.39,8.71,9.41,11.4,15.22-4.36.2-8.83.32-13,1.75-3.8,1.57-6.83,5.56-6.37,9.8.66,4.48,4.03,8.45,8.34,9.85,3.22,1.19,6.71.83,10.05.6.26,3.39.83,6.94-.44,10.21-1.34,3.37-3.8,6.11-6.14,8.81-6.46,7.23-12.89,14.49-19.35,21.73-3.3,3.1-7.76,4.96-12.2,5.68-2.47.56-4.78-1.53-4.6-4.02-.25-9.62-.13-19.26-.49-28.88.11-2.05-2.12-3.15-3.89-3.05-3.61.12-7.27.93-10.5,2.57-2.35,1.27-3.14,4.04-3.13,6.53-.18,10.33-.58,20.65-.89,30.97-.13,4.96,4.7,7.66,7.16,11.37.84,1.31,1.51,4.38-.75,4.59-6.89.48-13.92,1.04-20.78-.04-3.25-17.34-.68-35.19-2.64-52.64-1.88-2.07-4.96-2.11-7.54-2.35-3.02-.38-5.04,2.36-6.68,4.46-8.77,12.49-18.37,24.41-26.5,37.34-1.09,1.99-3.07,4.53-1.2,6.7,3.16,2.68,7.17,5.16,7.72,9.69-6.51,1.13-13.23.7-19.81.42-.37-6.35-2.88-13.39.71-19.25,5.21-10.98,10.79-21.81,15.23-33.14.64-2.04,2.18-4.94-.38-6.3-6.46-4.44-14.06-6.94-21.51-9.19-2.83-.57-6.21-2.01-8.77.03-3.75,3.02-6.23,7.27-8.71,11.33-3.5,6.13-7.79,12.05-9.44,19.02-.69,2.84,1.08,5.41,3.01,7.29,5.52,5.5,11.09,10.96,16.51,16.57,2.57,2.77,5.55,5.44,6.86,9.08.6,1.32.29,3.19-1.19,3.75-3.87.8-7.88.55-11.81.71-2.22-.09-5.12.23-6.49-1.93-1.15-2.32.33-4.99-.39-7.4-6.73-3.99-14.22-6.53-21.19-10.07-4.48-2.36-9.51-4.22-12.96-8.08-.72-3.92,1.19-8.03-.13-11.94-1.59-4.98-7.5-7.46-12.39-6.48-4.92.94-8.32,4.94-12.43,7.48-6.67,3.88-8.46,13.18-6.08,20.01,4.19,2.48,8.87,6.74,7.39,12.17-7.85-.03-15.71-.1-23.56.04-1.28-3.72-.01-7.65.38-11.42.99-5.64.9-11.74-2.23-16.74-3.4-5.23-6.38-10.9-7.22-17.16-.11-1.43-.33-3.31,1.06-4.23,4.17-2.89,9.91,1.39,13.92-2.04,1.59-2.09,1.44-4.93,1.75-7.41.54-13.04-.99-26.03-1.78-39.01-6.08-1.4-9.91-6.63-14.48-10.42-6.25-5.86-13.52-11.38-16.56-19.71-1.46-3.78.12-7.96,2.63-10.89,6.32-7.33,13.36-13.98,20.06-20.96,2.22-2.4,5.28-4.29,8.66-4.01,10.02.17,20.05.41,30.07.1,5.42.05,9.11-6.46,6.77-11.23-1.14-2.62-4.4-2.64-6.77-3.37-.83.97-1.84,1.78-3.04,2.26-3.87-1.15-7.59-2.83-11.57-3.62-3.53-1.05-8.02-1.68-9.62-5.52,3.22-2.7,7.49-3.13,11.31-4.52,2.73-.87,5.42-1.97,8.27-2.37Z"/>
      <path class="d" d="M256.79,109.8c7.74-2.11,16.5-1.44,23.31,3.03,5.75,3.79,9.82,9.78,11.99,16.25.97,2.95,1.75,6.13.94,9.22-5.36-4.36-9.99-10.19-16.95-12.12-4.61-1.64-9.45-.3-14.13.14-4.72.44-9.46-2.67-10.7-7.28-1.22-3.95,1.79-8.12,5.54-9.24Z"/>
    </g>
  </g>
</svg>
