<?xml version="1.0" encoding="UTF-8" ?>
<!DOCTYPE svg PUBLIC "-//W3C//DTD SVG 1.1//EN" "http://www.w3.org/Graphics/SVG/1.1/DTD/svg11.dtd">
<svg width="200pt" height="200pt" viewBox="0 0 200 200" version="1.1" xmlns="http://www.w3.org/2000/svg">
<g id="#ffffffff">
<path fill="#ffffff" opacity="1.00" d=" M 0.00 0.00 L 200.00 0.00 L 200.00 200.00 L 0.00 200.00 L 0.00 0.00 M 115.21 50.33 C 109.47 52.84 104.78 57.58 102.25 63.30 C 99.95 67.99 100.21 73.44 98.06 78.20 C 93.05 91.47 79.07 100.59 64.90 99.92 C 58.98 100.04 53.53 97.60 48.13 95.53 C 47.70 114.31 48.05 133.10 47.93 151.89 C 65.25 151.99 82.58 151.88 99.90 151.94 C 99.91 140.95 99.85 129.96 100.04 118.96 C 99.69 113.74 99.60 107.64 103.79 103.80 C 109.27 98.02 117.88 100.37 124.93 99.92 C 137.14 100.67 148.86 91.56 151.32 79.62 C 153.44 70.41 150.03 60.24 142.78 54.19 C 135.37 47.70 124.11 46.14 115.21 50.33 Z" />
</g>
<g id="#0d0d0dff">
<path fill="#0d0d0d" opacity="1.00" d=" M 115.21 50.33 C 124.11 46.14 135.37 47.70 142.78 54.19 C 150.03 60.24 153.44 70.41 151.32 79.62 C 148.86 91.56 137.14 100.67 124.93 99.92 C 117.88 100.37 109.27 98.02 103.79 103.80 C 99.60 107.64 99.69 113.74 100.04 118.96 C 99.85 129.96 99.91 140.95 99.90 151.94 C 82.58 151.88 65.25 151.99 47.93 151.89 C 48.05 133.10 47.70 114.31 48.13 95.53 C 53.53 97.60 58.98 100.04 64.90 99.92 C 79.07 100.59 93.05 91.47 98.06 78.20 C 100.21 73.44 99.95 67.99 102.25 63.30 C 104.78 57.58 109.47 52.84 115.21 50.33 Z" />
</g>
</svg>
