<?xml version="1.0" encoding="iso-8859-1"?>
<!-- Generator: Adobe Illustrator 26.0.1, SVG Export Plug-In . SVG Version: 6.00 Build 0)  -->
<svg version="1.1" id="Layer_1" xmlns="http://www.w3.org/2000/svg" xmlns:xlink="http://www.w3.org/1999/xlink" x="0px" y="0px"
	 viewBox="0 0 500 500" style="enable-background:new 0 0 500 500;" xml:space="preserve">
<g id="watermark_1_">
	<g>
		<g id="watermark" style="opacity:0.61;">
			<g>
				<g>
					<g>
						<g>
							<polygon style="fill:#FFFFFF;" points="213.765,462.313 208.204,475.158 205.268,475.158 199.726,462.313 202.938,462.313 
								206.846,471.488 210.81,462.313 							"/>
						</g>
						<g>
							<path style="fill:#FFFFFF;" d="M223.507,470.883h-7.469c0.275,1.23,1.321,1.982,2.826,1.982c1.046,0,1.798-0.312,2.477-0.954
								l1.523,1.651c-0.917,1.046-2.294,1.597-4.074,1.597c-3.413,0-5.634-2.147-5.634-5.083c0-2.954,2.257-5.083,5.267-5.083
								c2.899,0,5.138,1.945,5.138,5.12C223.562,470.332,223.526,470.644,223.507,470.883 M216.002,469.213h4.863
								c-0.202-1.248-1.138-2.055-2.422-2.055C217.139,467.158,216.204,467.947,216.002,469.213"/>
						</g>
						<g>
							<path style="fill:#FFFFFF;" d="M224.735,470.075c0-2.973,2.294-5.083,5.505-5.083c2.074,0,3.707,0.899,4.423,2.514
								l-2.22,1.193c-0.532-0.936-1.321-1.358-2.221-1.358c-1.45,0-2.587,1.009-2.587,2.734c0,1.725,1.138,2.734,2.587,2.734
								c0.899,0,1.688-0.404,2.221-1.358l2.22,1.211c-0.716,1.578-2.349,2.495-4.423,2.495
								C227.029,475.158,224.735,473.048,224.735,470.075"/>
						</g>
						<g>
							<path style="fill:#FFFFFF;" d="M242.828,474.535c-0.587,0.422-1.45,0.624-2.331,0.624c-2.33,0-3.688-1.193-3.688-3.542
								v-4.055h-1.523v-2.202h1.523v-2.404h2.863v2.404h2.459v2.202h-2.459v4.019c0,0.844,0.458,1.303,1.229,1.303
								c0.422,0,0.844-0.128,1.156-0.367L242.828,474.535z"/>
						</g>
					</g>
					<g>
						<path style="fill:#FFFFFF;" d="M262.474,465.139v2.643c-0.238-0.018-0.422-0.037-0.642-0.037
							c-1.578,0-2.624,0.862-2.624,2.753v4.661h-2.863v-9.873h2.734v1.303C259.776,465.634,260.951,465.139,262.474,465.139"/>
					</g>
					<g>
						<path style="fill:#FFFFFF;" d="M263.299,473.672l1.009-2.239c1.083,0.789,2.697,1.339,4.239,1.339
							c1.762,0,2.477-0.587,2.477-1.376c0-2.404-7.469-0.752-7.469-5.523c0-2.184,1.762-4,5.413-4c1.615,0,3.267,0.385,4.459,1.138
							l-0.918,2.257c-1.193-0.679-2.422-1.009-3.56-1.009c-1.761,0-2.44,0.66-2.44,1.468c0,2.367,7.468,0.734,7.468,5.45
							c0,2.147-1.78,3.982-5.45,3.982C266.492,475.158,264.437,474.553,263.299,473.672"/>
					</g>
					<g>
						<path style="fill:#FFFFFF;" d="M285.428,470.883h-7.469c0.275,1.23,1.321,1.982,2.826,1.982c1.046,0,1.798-0.312,2.477-0.954
							l1.523,1.651c-0.918,1.046-2.294,1.597-4.074,1.597c-3.413,0-5.634-2.147-5.634-5.083c0-2.954,2.257-5.083,5.267-5.083
							c2.9,0,5.138,1.945,5.138,5.12C285.484,470.332,285.447,470.644,285.428,470.883 M277.923,469.213h4.863
							c-0.202-1.248-1.138-2.055-2.422-2.055C279.061,467.158,278.125,467.947,277.923,469.213"/>
					</g>
					<g>
						<path style="fill:#FFFFFF;" d="M297.007,470.883h-7.469c0.275,1.23,1.321,1.982,2.826,1.982c1.046,0,1.798-0.312,2.477-0.954
							l1.523,1.651c-0.918,1.046-2.294,1.597-4.074,1.597c-3.413,0-5.634-2.147-5.634-5.083c0-2.954,2.257-5.083,5.267-5.083
							c2.899,0,5.138,1.945,5.138,5.12C297.062,470.332,297.025,470.644,297.007,470.883 M289.501,469.213h4.863
							c-0.202-1.248-1.138-2.055-2.422-2.055C290.639,467.158,289.703,467.947,289.501,469.213"/>
					</g>
					<g>
						<polygon style="fill:#FFFFFF;" points="303.208,471.286 301.831,472.644 301.831,475.158 298.969,475.158 298.969,461.543 
							301.831,461.543 301.831,469.25 306.016,465.286 309.429,465.286 305.318,469.47 309.796,475.158 306.327,475.158 						"/>
					</g>
					<g>
						<path style="fill:#FFFFFF;" d="M256.601,476.501L256.601,476.501l-2.86-2.86c-0.435,0.508-0.953,0.943-1.534,1.284
							c-0.092,0.069-0.186,0.136-0.283,0.199l3.027,3.027c0.456,0.456,1.195,0.456,1.65,0
							C257.057,477.695,257.057,476.957,256.601,476.501"/>
					</g>
					<g>
						<path style="fill:#FFFFFF;" d="M249.984,464.386c0.221-0.173,0.495-0.281,0.797-0.281c0.042,0,0.083,0.002,0.124,0.006
							c-0.214-0.156-0.478-0.249-0.764-0.249c-0.395,0-0.744,0.18-0.981,0.458c-0.051,0-0.1,0.006-0.151,0.007
							c0.039-0.077,0.064-0.162,0.064-0.255c0-0.234-0.143-0.434-0.346-0.519c0.087,0.126,0.138,0.279,0.138,0.445
							c0,0.122-0.031,0.237-0.081,0.341c-2.811,0.201-5.03,2.539-5.03,5.4c0,2.993,2.426,5.42,5.42,5.42
							c2.993,0,5.42-2.427,5.42-5.42C254.595,467.021,252.593,464.777,249.984,464.386 M247.983,465.798
							c0.435,0,0.844,0.112,1.199,0.309c0.374-0.245,0.82-0.387,1.299-0.387c0.711,0,1.348,0.312,1.784,0.806
							c-0.435-0.379-1.004-0.61-1.627-0.61c-0.449,0-0.87,0.12-1.234,0.329c-0.079,0.046-0.156,0.096-0.229,0.15
							c-0.065-0.048-0.133-0.093-0.204-0.134c-0.369-0.219-0.8-0.344-1.26-0.344c-0.3,0-0.588,0.054-0.854,0.152
							C247.196,465.896,247.578,465.798,247.983,465.798 M251.772,470.24c0.115,0.305,0.181,0.634,0.181,0.979
							c0,1.534-1.244,2.777-2.778,2.777c-1.534,0-2.777-1.243-2.777-2.777c0-0.345,0.066-0.674,0.181-0.979
							c-0.62-0.382-1.035-1.064-1.035-1.846c0-1.197,0.971-2.168,2.168-2.168c0.565,0,1.078,0.218,1.463,0.571
							c0.386-0.354,0.899-0.571,1.464-0.571c1.197,0,2.168,0.971,2.168,2.168C252.807,469.175,252.392,469.858,251.772,470.24"/>
					</g>
					<g>
						<path style="fill:#FFFFFF;" d="M251.666,468.203c0,0.497-0.404,0.901-0.901,0.901c-0.497,0-0.901-0.404-0.901-0.901
							s0.404-0.901,0.901-0.901c0.101,0,0.197,0.017,0.287,0.047c-0.03,0.062-0.045,0.132-0.045,0.204
							c0,0.273,0.221,0.494,0.494,0.494c0.05,0,0.099-0.008,0.146-0.022C251.66,468.083,251.666,468.142,251.666,468.203"/>
					</g>
					<g>
						<path style="fill:#FFFFFF;" d="M248.255,468.203c0,0.376-0.305,0.681-0.681,0.681c-0.376,0-0.681-0.305-0.681-0.681
							s0.305-0.681,0.681-0.681c0.076,0,0.149,0.013,0.217,0.035c-0.023,0.047-0.034,0.1-0.034,0.155
							c0,0.206,0.167,0.374,0.374,0.374c0.038,0,0.075-0.006,0.11-0.017C248.25,468.112,248.255,468.157,248.255,468.203"/>
					</g>
					<g>
						<g>
							<g>
								<rect x="242.908" y="468.971" style="fill:#FFFFFF;" width="0.616" height="0.616"/>
							</g>
							<g>
								<rect x="254.827" y="468.971" style="fill:#FFFFFF;" width="0.616" height="0.616"/>
							</g>
							<g>
								<path style="fill:#FFFFFF;" d="M255.205,469.223h-0.14c0-3.248-2.642-5.89-5.89-5.89c-3.248,0-5.89,2.642-5.89,5.89h-0.14
									c0-1.611,0.627-3.125,1.766-4.264c1.139-1.139,2.653-1.766,4.264-1.766c1.611,0,3.125,0.627,4.264,1.766
									C254.578,466.098,255.205,467.613,255.205,469.223"/>
							</g>
						</g>
						<g>
							<rect x="248.868" y="462.956" style="fill:#FFFFFF;" width="0.616" height="0.616"/>
						</g>
						<g>
							<rect x="244.95" y="463.194" style="fill:#FFFFFF;" width="8.45" height="0.14"/>
						</g>
						<g>
							<path style="fill:#FFFFFF;" d="M245.174,463.291c0,0.108-0.088,0.196-0.196,0.196c-0.108,0-0.196-0.088-0.196-0.196
								s0.088-0.196,0.196-0.196C245.086,463.095,245.174,463.183,245.174,463.291"/>
						</g>
						<g>
							<path style="fill:#FFFFFF;" d="M253.596,463.291c0,0.108-0.088,0.196-0.196,0.196c-0.108,0-0.196-0.088-0.196-0.196
								s0.088-0.196,0.196-0.196C253.509,463.095,253.596,463.183,253.596,463.291"/>
						</g>
					</g>
				</g>
				<g>
					<path style="fill:#FFFFFF;" d="M314.356,474.551c0,1.559-2.364,1.559-2.364,0C311.993,472.993,314.356,472.993,314.356,474.551
						z"/>
				</g>
				<g>
					<g>
						<g>
							<path style="fill:#FFFFFF;" d="M161.739,467.691l1.772,6.088l1.855-6.088h2.215l-2.823,8.14h-2.33l-0.837-2.396l-0.722-2.708
								l-0.722,2.708l-0.837,2.396h-2.33l-2.839-8.14h2.231l1.855,6.088l1.756-6.088H161.739z"/>
						</g>
						<g>
							<path style="fill:#FFFFFF;" d="M176.713,467.691l1.772,6.088l1.855-6.088h2.215l-2.823,8.14h-2.33l-0.837-2.396l-0.722-2.708
								l-0.722,2.708l-0.837,2.396h-2.33l-2.839-8.14h2.231l1.855,6.088l1.756-6.088H176.713z"/>
						</g>
						<g>
							<path style="fill:#FFFFFF;" d="M191.687,467.691l1.772,6.088l1.855-6.088h2.215l-2.823,8.14h-2.33l-0.837-2.396l-0.722-2.708
								l-0.722,2.708l-0.837,2.396h-2.33l-2.839-8.14h2.231l1.855,6.088l1.756-6.088H191.687z"/>
						</g>
					</g>
					<g>
						<path style="fill:#FFFFFF;" d="M200.908,474.662c0,1.559-2.364,1.559-2.364,0
							C198.545,473.104,200.908,473.104,200.908,474.662z"/>
					</g>
					<g>
						<path style="fill:#FFFFFF;" d="M322.71,474.551c-0.935,0.919-1.919,1.28-3.117,1.28c-2.346,0-4.3-1.411-4.3-4.282
							s1.953-4.284,4.3-4.284c1.149,0,2.035,0.329,2.921,1.199l-1.264,1.329c-0.476-0.428-1.066-0.64-1.623-0.64
							c-1.346,0-2.33,0.985-2.33,2.396c0,1.542,1.05,2.362,2.297,2.362c0.64,0,1.28-0.18,1.772-0.672L322.71,474.551z"/>
					</g>
					<g>
						<path style="fill:#FFFFFF;" d="M331.805,471.614c0,2.33-1.591,4.217-4.217,4.217c-2.626,0-4.201-1.887-4.201-4.217
							c0-2.314,1.609-4.217,4.185-4.217C330.149,467.397,331.805,469.3,331.805,471.614z M325.389,471.614
							c0,1.231,0.739,2.38,2.199,2.38c1.46,0,2.199-1.149,2.199-2.38c0-1.215-0.854-2.396-2.199-2.396
							C326.144,469.218,325.389,470.4,325.389,471.614z"/>
					</g>
					<g>
						<path style="fill:#FFFFFF;" d="M338.572,475.831v-4.332c0-1.068-0.559-2.035-1.658-2.035c-1.082,0-1.722,0.967-1.722,2.035
							v4.332h-2.003v-8.107h1.855l0.148,0.985c0.426-0.82,1.362-1.116,2.133-1.116c0.969,0,1.937,0.394,2.396,1.51
							c0.723-1.149,1.658-1.478,2.708-1.478c2.297,0,3.43,1.412,3.43,3.84v4.365h-2.003v-4.365c0-1.066-0.442-1.97-1.526-1.97
							c-1.082,0-1.756,0.935-1.756,2.003v4.332H338.572z"/>
					</g>
				</g>
			</g>
		</g>
		<g style="opacity:0.61;">
			<g>
				<g>
					<path style="fill:#FFFFFF;" d="M345.988,432.441c-0.006-1.224-0.959-2.121-2.189-2.14c-0.924-0.014-0.832,0.12-0.834-0.867
						c-0.003-1.097-0.007-2.194,0.003-3.292c0.003-0.379-0.112-0.691-0.362-0.976c-2.342-2.668-4.678-5.342-7.019-8.011
						c-0.12-0.137-0.275-0.244-0.414-0.366c-6.214,0-12.427,0-18.641,0c-0.794,0.293-1.14,0.868-1.138,1.709
						c0.01,3.748,0.004,7.496,0.004,11.243c0,0.556-0.003,0.589-0.55,0.551c-1.497-0.102-2.516,0.986-2.497,2.492
						c0.044,3.476,0.013,6.953,0.014,10.43c0.001,1.58,0.867,2.443,2.45,2.449c0.582,0.002,0.582,0.002,0.582,0.6
						c0,2.219-0.001,4.438,0.001,6.657c0.001,1.192,0.58,1.771,1.768,1.771c8.013,0.001,16.027,0.001,24.04,0
						c1.168,0,1.755-0.583,1.757-1.745c0.002-2.256,0-4.512,0.001-6.768c0-0.512,0.002-0.511,0.52-0.515
						c0.271-0.002,0.541,0.008,0.809-0.058c0.996-0.246,1.69-1.044,1.694-2.069C346.003,439.838,346.005,436.139,345.988,432.441z
						 M317.537,418.304c5.337,0,10.674,0,16.01,0c0.548,0,0.554,0.007,0.554,0.561c0.001,2.243-0.001,4.486,0.001,6.73
						c0.001,0.811,0.249,1.059,1.06,1.059c1.91,0.001,3.821,0,5.731,0.001c0.458,0,0.479,0.021,0.481,0.483
						c0.003,0.887,0.002,1.775,0,2.662c-0.001,0.477-0.024,0.498-0.504,0.499c-3.895,0.001-7.79,0-11.684,0
						c-3.882,0-7.765,0-11.647,0c-0.55,0-0.552-0.001-0.552-0.561c-0.001-3.624-0.001-7.247,0-10.871
						C316.987,418.307,316.991,418.304,317.537,418.304z M340.822,452.721c-3.883,0.001-7.766,0-11.65,0c-3.871,0-7.742,0-11.613,0
						c-0.572,0-0.574-0.002-0.574-0.579c-0.001-1.997-0.001-3.994,0.001-5.991c0-0.464,0.023-0.487,0.478-0.487
						c7.803-0.001,15.607-0.001,23.41,0c0.478,0,0.499,0.02,0.499,0.503c0.002,1.997,0.001,3.994,0,5.991
						C341.375,452.716,341.37,452.721,340.822,452.721z"/>
				</g>
				<g>
					<g>
						<rect x="327.418" y="418.195" style="fill:#FFFFFF;" width="1.757" height="1.054"/>
					</g>
					<g>
						<rect x="325.662" y="419.249" style="fill:#FFFFFF;" width="1.757" height="1.054"/>
					</g>
					<g>
						<rect x="327.418" y="420.303" style="fill:#FFFFFF;" width="1.757" height="1.054"/>
					</g>
					<g>
						<rect x="325.662" y="421.357" style="fill:#FFFFFF;" width="1.757" height="1.054"/>
					</g>
					<g>
						<rect x="327.418" y="422.411" style="fill:#FFFFFF;" width="1.757" height="1.054"/>
					</g>
					<g>
						<rect x="325.662" y="423.465" style="fill:#FFFFFF;" width="1.757" height="1.054"/>
					</g>
					<g>
						<rect x="327.418" y="424.519" style="fill:#FFFFFF;" width="1.757" height="1.054"/>
					</g>
					<g>
						<rect x="325.662" y="425.573" style="fill:#FFFFFF;" width="1.757" height="1.054"/>
					</g>
					<g>
						<rect x="327.418" y="426.627" style="fill:#FFFFFF;" width="1.757" height="1.054"/>
					</g>
					<g>
						<rect x="325.662" y="427.681" style="fill:#FFFFFF;" width="1.757" height="1.054"/>
					</g>
					<g>
						<rect x="327.418" y="428.736" style="fill:#FFFFFF;" width="1.757" height="1.054"/>
					</g>
					<g>
						<rect x="325.662" y="429.79" style="fill:#FFFFFF;" width="1.757" height="1.054"/>
					</g>
				</g>
			</g>
			<g>
				<path style="fill:#FFFFFF;" d="M187.637,432.441c-0.006-1.224-0.959-2.121-2.189-2.14c-0.924-0.014-0.832,0.12-0.834-0.867
					c-0.003-1.097-0.007-2.194,0.003-3.292c0.003-0.379-0.112-0.691-0.362-0.976c-2.342-2.668-4.678-5.342-7.019-8.011
					c-0.12-0.137-0.275-0.244-0.414-0.366c-6.214,0-12.427,0-18.641,0c-0.794,0.293-1.14,0.868-1.138,1.709
					c0.01,3.748,0.004,7.496,0.004,11.243c0,0.556-0.003,0.589-0.55,0.551c-1.497-0.102-2.516,0.986-2.497,2.492
					c0.044,3.476,0.013,6.953,0.014,10.43c0.001,1.58,0.867,2.443,2.45,2.449c0.582,0.002,0.582,0.002,0.582,0.6
					c0,2.219-0.001,4.438,0.001,6.657c0.001,1.192,0.58,1.771,1.768,1.771c8.013,0.001,16.027,0.001,24.04,0
					c1.168,0,1.755-0.583,1.757-1.745c0.002-2.256,0-4.512,0.001-6.768c0-0.512,0.002-0.511,0.52-0.515
					c0.271-0.002,0.541,0.008,0.809-0.058c0.996-0.246,1.69-1.044,1.694-2.069C187.652,439.838,187.655,436.139,187.637,432.441z
					 M159.187,418.304c5.337,0,10.674,0,16.01,0c0.548,0,0.554,0.007,0.554,0.561c0.001,2.243-0.001,4.486,0.001,6.73
					c0.001,0.811,0.249,1.059,1.06,1.059c1.91,0.001,3.821,0,5.731,0.001c0.458,0,0.479,0.021,0.481,0.483
					c0.003,0.887,0.002,1.775,0,2.662c-0.001,0.477-0.024,0.498-0.504,0.499c-3.895,0.001-7.79,0-11.684,0
					c-3.882,0-7.765,0-11.647,0c-0.55,0-0.552-0.001-0.552-0.561c-0.001-3.624-0.001-7.247,0-10.871
					C158.636,418.307,158.64,418.304,159.187,418.304z M182.472,452.721c-3.883,0.001-7.766,0-11.65,0c-3.871,0-7.742,0-11.613,0
					c-0.572,0-0.574-0.002-0.574-0.579c-0.001-1.997-0.001-3.994,0.001-5.991c0-0.464,0.023-0.487,0.478-0.487
					c7.803-0.001,15.607-0.001,23.41,0c0.478,0,0.499,0.02,0.499,0.503c0.002,1.997,0.001,3.994,0,5.991
					C183.024,452.716,183.019,452.721,182.472,452.721z"/>
			</g>
			<g>
				<path style="fill:#FFFFFF;" d="M159.779,441.81v-7.897h2.779c0.375,0,0.726,0.061,1.053,0.182
					c0.327,0.121,0.612,0.292,0.855,0.513c0.242,0.221,0.434,0.483,0.573,0.789c0.14,0.305,0.21,0.642,0.21,1.009
					c0,0.375-0.07,0.715-0.21,1.02c-0.14,0.305-0.331,0.568-0.573,0.789c-0.243,0.221-0.528,0.392-0.855,0.513
					c-0.327,0.121-0.678,0.182-1.053,0.182h-1.29v2.901H159.779z M162.58,437.498c0.39,0,0.684-0.11,0.882-0.331
					c0.199-0.22,0.298-0.474,0.298-0.761c0-0.14-0.024-0.276-0.072-0.408c-0.048-0.132-0.121-0.248-0.221-0.347
					c-0.099-0.1-0.223-0.178-0.37-0.237c-0.147-0.059-0.32-0.089-0.518-0.089h-1.312v2.173H162.58z"/>
				<path style="fill:#FFFFFF;" d="M166.308,433.913h1.731l3.177,5.294h0.088l-0.088-1.522v-3.772h1.478v7.897h-1.566l-3.353-5.592
					h-0.088l0.088,1.522v4.07h-1.467V433.913z"/>
				<path style="fill:#FFFFFF;" d="M177.922,437.475h3.872c0.022,0.089,0.04,0.195,0.055,0.32c0.014,0.125,0.022,0.25,0.022,0.375
					c0,0.507-0.077,0.985-0.231,1.434c-0.154,0.449-0.397,0.849-0.728,1.202c-0.353,0.375-0.776,0.666-1.268,0.871
					c-0.493,0.206-1.055,0.309-1.688,0.309c-0.574,0-1.114-0.103-1.622-0.309c-0.507-0.206-0.948-0.492-1.323-0.86
					c-0.375-0.367-0.673-0.803-0.894-1.307c-0.221-0.504-0.331-1.053-0.331-1.649c0-0.595,0.11-1.145,0.331-1.649
					c0.221-0.504,0.518-0.939,0.894-1.307c0.375-0.367,0.816-0.654,1.323-0.86c0.507-0.206,1.048-0.309,1.622-0.309
					c0.64,0,1.211,0.11,1.715,0.331c0.504,0.221,0.935,0.526,1.296,0.915l-1.025,1.004c-0.258-0.272-0.544-0.48-0.861-0.623
					c-0.316-0.143-0.695-0.215-1.136-0.215c-0.361,0-0.703,0.065-1.026,0.193c-0.324,0.129-0.607,0.311-0.85,0.546
					c-0.242,0.235-0.436,0.52-0.579,0.855c-0.143,0.335-0.215,0.708-0.215,1.119c0,0.412,0.072,0.785,0.215,1.12
					c0.143,0.335,0.338,0.62,0.584,0.855c0.246,0.235,0.531,0.418,0.855,0.546c0.323,0.129,0.669,0.193,1.037,0.193
					c0.419,0,0.773-0.061,1.064-0.182c0.29-0.121,0.538-0.278,0.744-0.469c0.148-0.132,0.275-0.3,0.381-0.502
					c0.106-0.202,0.189-0.428,0.248-0.678h-2.482V437.475z"/>
			</g>
			<g>
				<path style="fill:#FFFFFF;" d="M224.019,432.441c-0.006-1.224-0.959-2.121-2.189-2.14c-0.924-0.014-0.832,0.12-0.834-0.867
					c-0.003-1.097-0.007-2.194,0.003-3.292c0.003-0.379-0.112-0.691-0.362-0.976c-2.342-2.668-4.678-5.342-7.019-8.011
					c-0.12-0.137-0.275-0.244-0.414-0.366c-6.214,0-12.427,0-18.641,0c-0.794,0.293-1.14,0.868-1.138,1.709
					c0.01,3.748,0.004,7.496,0.004,11.243c0,0.556-0.003,0.589-0.55,0.551c-1.497-0.102-2.516,0.986-2.497,2.492
					c0.044,3.476,0.013,6.953,0.014,10.43c0.001,1.58,0.867,2.443,2.45,2.449c0.582,0.002,0.582,0.002,0.582,0.6
					c0,2.219-0.001,4.438,0.001,6.657c0.001,1.192,0.58,1.771,1.768,1.771c8.013,0.001,16.027,0.001,24.04,0
					c1.168,0,1.755-0.583,1.757-1.745c0.002-2.256,0-4.512,0.001-6.768c0-0.512,0.002-0.511,0.52-0.515
					c0.271-0.002,0.541,0.008,0.809-0.058c0.997-0.246,1.69-1.044,1.694-2.069C224.034,439.838,224.036,436.139,224.019,432.441z
					 M195.568,418.304c5.337,0,10.674,0,16.01,0c0.548,0,0.554,0.007,0.554,0.561c0.001,2.243-0.001,4.486,0.001,6.73
					c0.001,0.811,0.249,1.059,1.06,1.059c1.91,0.001,3.821,0,5.731,0.001c0.458,0,0.479,0.021,0.481,0.483
					c0.003,0.887,0.002,1.775,0,2.662c-0.001,0.477-0.024,0.498-0.504,0.499c-3.895,0.001-7.79,0-11.684,0
					c-3.882,0-7.765,0-11.647,0c-0.55,0-0.552-0.001-0.552-0.561c-0.001-3.624-0.001-7.247,0-10.871
					C195.018,418.307,195.022,418.304,195.568,418.304z M218.854,452.721c-3.883,0.001-7.766,0-11.65,0c-3.871,0-7.742,0-11.613,0
					c-0.572,0-0.574-0.002-0.574-0.579c-0.001-1.997-0.001-3.994,0.001-5.991c0-0.464,0.023-0.487,0.478-0.487
					c7.803-0.001,15.607-0.001,23.41,0c0.478,0,0.499,0.02,0.499,0.503c0.002,1.997,0.001,3.994,0,5.991
					C219.406,452.716,219.401,452.721,218.854,452.721z"/>
			</g>
			<g>
				<path style="fill:#FFFFFF;" d="M205.111,433.913h1.699l2.967,7.897h-1.644l-0.651-1.886h-3.044l-0.651,1.886h-1.643
					L205.111,433.913z M206.997,438.557l-0.706-1.974l-0.287-0.96h-0.088l-0.287,0.96l-0.706,1.974H206.997z"/>
				<path style="fill:#FFFFFF;" d="M211.331,435.678c-0.125,0-0.245-0.024-0.359-0.072c-0.114-0.048-0.213-0.114-0.298-0.199
					c-0.084-0.084-0.151-0.182-0.198-0.292c-0.048-0.11-0.072-0.232-0.072-0.364c0-0.132,0.024-0.254,0.072-0.364
					c0.048-0.11,0.114-0.208,0.198-0.292c0.084-0.084,0.184-0.151,0.298-0.198c0.114-0.048,0.233-0.072,0.359-0.072
					c0.257,0,0.478,0.09,0.662,0.27c0.184,0.18,0.276,0.399,0.276,0.656c0,0.257-0.092,0.476-0.276,0.656
					C211.809,435.588,211.589,435.678,211.331,435.678z M210.615,441.81v-5.404h1.445v5.404H210.615z"/>
			</g>
			<g>
				<path style="fill:#FFFFFF;" d="M261.044,432.441c-0.006-1.224-0.959-2.121-2.189-2.14c-0.924-0.014-0.832,0.12-0.834-0.867
					c-0.003-1.097-0.007-2.194,0.003-3.292c0.003-0.379-0.112-0.691-0.362-0.976c-2.342-2.668-4.678-5.342-7.019-8.011
					c-0.12-0.137-0.275-0.244-0.414-0.366c-6.214,0-12.427,0-18.641,0c-0.794,0.293-1.14,0.868-1.138,1.709
					c0.01,3.748,0.004,7.496,0.004,11.243c0,0.556-0.003,0.589-0.55,0.551c-1.497-0.102-2.516,0.986-2.497,2.492
					c0.044,3.476,0.013,6.953,0.014,10.43c0.001,1.58,0.867,2.443,2.45,2.449c0.582,0.002,0.582,0.002,0.582,0.6
					c0,2.219-0.001,4.438,0.001,6.657c0.001,1.192,0.58,1.771,1.768,1.771c8.013,0.001,16.027,0.001,24.04,0
					c1.168,0,1.755-0.583,1.757-1.745c0.002-2.256,0-4.512,0.001-6.768c0-0.512,0.002-0.511,0.52-0.515
					c0.271-0.002,0.541,0.008,0.809-0.058c0.996-0.246,1.69-1.044,1.694-2.069C261.059,439.838,261.061,436.139,261.044,432.441z
					 M232.593,418.304c5.337,0,10.674,0,16.01,0c0.548,0,0.554,0.007,0.554,0.561c0.001,2.243-0.001,4.486,0.001,6.73
					c0.001,0.811,0.249,1.059,1.06,1.059c1.91,0.001,3.821,0,5.731,0.001c0.458,0,0.479,0.021,0.481,0.483
					c0.003,0.887,0.002,1.775,0,2.662c-0.001,0.477-0.024,0.498-0.504,0.499c-3.895,0.001-7.79,0-11.684,0
					c-3.882,0-7.765,0-11.647,0c-0.55,0-0.552-0.001-0.552-0.561c-0.001-3.624-0.001-7.247,0-10.871
					C232.042,418.307,232.047,418.304,232.593,418.304z M255.878,452.721c-3.883,0.001-7.766,0-11.65,0c-3.871,0-7.742,0-11.613,0
					c-0.572,0-0.574-0.002-0.574-0.579c-0.001-1.997-0.001-3.994,0.001-5.991c0-0.464,0.023-0.487,0.478-0.487
					c7.803-0.001,15.607-0.001,23.41,0c0.478,0,0.499,0.02,0.499,0.503c0.002,1.997,0.001,3.994,0,5.991
					C256.431,452.716,256.426,452.721,255.878,452.721z"/>
			</g>
			<g>
				<path style="fill:#FFFFFF;" d="M236.361,441.987c-0.338,0-0.662-0.048-0.971-0.143c-0.309-0.095-0.592-0.239-0.849-0.43
					c-0.257-0.191-0.481-0.425-0.673-0.7c-0.191-0.276-0.342-0.597-0.452-0.965l1.401-0.551c0.103,0.397,0.283,0.726,0.54,0.987
					c0.257,0.261,0.596,0.392,1.015,0.392c0.154,0,0.303-0.02,0.447-0.061c0.143-0.04,0.272-0.099,0.386-0.176
					c0.114-0.077,0.204-0.175,0.27-0.292s0.099-0.254,0.099-0.408c0-0.147-0.026-0.279-0.077-0.397
					c-0.051-0.117-0.138-0.228-0.259-0.331c-0.121-0.103-0.28-0.202-0.475-0.298c-0.195-0.095-0.435-0.195-0.722-0.298l-0.485-0.176
					c-0.213-0.073-0.429-0.173-0.645-0.298c-0.217-0.125-0.413-0.276-0.59-0.452c-0.177-0.176-0.322-0.384-0.436-0.623
					c-0.114-0.239-0.171-0.509-0.171-0.81c0-0.309,0.06-0.597,0.182-0.866c0.121-0.268,0.294-0.503,0.518-0.706
					c0.224-0.202,0.492-0.36,0.805-0.474s0.66-0.171,1.042-0.171c0.397,0,0.74,0.053,1.031,0.16
					c0.291,0.107,0.537,0.243,0.739,0.408c0.202,0.165,0.366,0.348,0.491,0.546c0.125,0.199,0.217,0.386,0.276,0.563l-1.312,0.551
					c-0.074-0.221-0.208-0.419-0.402-0.596c-0.195-0.176-0.462-0.265-0.8-0.265c-0.324,0-0.592,0.076-0.805,0.226
					c-0.213,0.151-0.32,0.348-0.32,0.59c0,0.235,0.103,0.436,0.309,0.601c0.206,0.165,0.533,0.325,0.982,0.48l0.497,0.165
					c0.316,0.111,0.605,0.237,0.866,0.381c0.261,0.143,0.485,0.314,0.673,0.513c0.187,0.199,0.331,0.425,0.43,0.678
					c0.1,0.254,0.149,0.546,0.149,0.877c0,0.412-0.083,0.767-0.248,1.064c-0.165,0.298-0.377,0.543-0.634,0.734
					c-0.258,0.191-0.548,0.335-0.872,0.43C236.986,441.939,236.67,441.987,236.361,441.987z"/>
				<path style="fill:#FFFFFF;" d="M239.516,433.913h1.61l1.633,4.754l0.287,1.015h0.088l0.309-1.015l1.699-4.754h1.61l-2.879,7.897
					h-1.566L239.516,433.913z"/>
				<path style="fill:#FFFFFF;" d="M251.097,437.475h3.871c0.022,0.089,0.04,0.195,0.055,0.32c0.015,0.125,0.023,0.25,0.023,0.375
					c0,0.507-0.078,0.985-0.232,1.434c-0.154,0.449-0.397,0.849-0.728,1.202c-0.353,0.375-0.775,0.666-1.268,0.871
					c-0.493,0.206-1.055,0.309-1.688,0.309c-0.574,0-1.114-0.103-1.621-0.309c-0.507-0.206-0.949-0.492-1.324-0.86
					c-0.375-0.367-0.673-0.803-0.894-1.307c-0.22-0.504-0.331-1.053-0.331-1.649c0-0.595,0.11-1.145,0.331-1.649
					c0.221-0.504,0.518-0.939,0.894-1.307c0.375-0.367,0.816-0.654,1.324-0.86c0.507-0.206,1.047-0.309,1.621-0.309
					c0.64,0,1.211,0.11,1.715,0.331c0.504,0.221,0.936,0.526,1.296,0.915l-1.026,1.004c-0.257-0.272-0.544-0.48-0.861-0.623
					c-0.316-0.143-0.694-0.215-1.136-0.215c-0.36,0-0.702,0.065-1.026,0.193c-0.323,0.129-0.607,0.311-0.849,0.546
					c-0.243,0.235-0.436,0.52-0.579,0.855c-0.143,0.335-0.215,0.708-0.215,1.119c0,0.412,0.072,0.785,0.215,1.12
					c0.143,0.335,0.338,0.62,0.585,0.855c0.246,0.235,0.531,0.418,0.854,0.546c0.324,0.129,0.669,0.193,1.037,0.193
					c0.419,0,0.774-0.061,1.064-0.182c0.29-0.121,0.539-0.278,0.745-0.469c0.147-0.132,0.274-0.3,0.38-0.502
					c0.107-0.202,0.189-0.428,0.248-0.678h-2.482V437.475z"/>
			</g>
			<g>
				<path style="fill:#FFFFFF;" d="M297.3,432.441c-0.006-1.224-0.959-2.121-2.189-2.14c-0.924-0.014-0.832,0.12-0.834-0.867
					c-0.003-1.097-0.007-2.194,0.003-3.292c0.003-0.379-0.112-0.691-0.362-0.976c-2.342-2.668-4.678-5.342-7.019-8.011
					c-0.12-0.137-0.275-0.244-0.414-0.366c-6.214,0-12.427,0-18.641,0c-0.794,0.293-1.14,0.868-1.138,1.709
					c0.01,3.748,0.004,7.496,0.004,11.243c0,0.556-0.003,0.589-0.55,0.551c-1.497-0.102-2.516,0.986-2.497,2.492
					c0.044,3.476,0.013,6.953,0.014,10.43c0.001,1.58,0.867,2.443,2.45,2.449c0.582,0.002,0.582,0.002,0.582,0.6
					c0,2.219-0.001,4.438,0.001,6.657c0.001,1.192,0.58,1.771,1.768,1.771c8.013,0.001,16.027,0.001,24.04,0
					c1.168,0,1.755-0.583,1.757-1.745c0.002-2.256,0-4.512,0.001-6.768c0-0.512,0.002-0.511,0.52-0.515
					c0.271-0.002,0.541,0.008,0.809-0.058c0.996-0.246,1.69-1.044,1.694-2.069C297.315,439.838,297.318,436.139,297.3,432.441z
					 M268.85,418.304c5.337,0,10.674,0,16.01,0c0.548,0,0.554,0.007,0.554,0.561c0.001,2.243-0.001,4.486,0.001,6.73
					c0.001,0.811,0.249,1.059,1.06,1.059c1.91,0.001,3.821,0,5.731,0.001c0.458,0,0.479,0.021,0.481,0.483
					c0.003,0.887,0.002,1.775,0,2.662c-0.001,0.477-0.024,0.498-0.504,0.499c-3.895,0.001-7.79,0-11.684,0
					c-3.882,0-7.765,0-11.647,0c-0.55,0-0.552-0.001-0.552-0.561c-0.001-3.624-0.001-7.247,0-10.871
					C268.299,418.307,268.303,418.304,268.85,418.304z M292.135,452.721c-3.883,0.001-7.766,0-11.65,0c-3.871,0-7.742,0-11.613,0
					c-0.572,0-0.574-0.002-0.574-0.579c-0.001-1.997-0.001-3.994,0.001-5.991c0-0.464,0.023-0.487,0.478-0.487
					c7.803-0.001,15.607-0.001,23.41,0c0.478,0,0.499,0.02,0.499,0.503c0.001,1.997,0.001,3.994,0,5.991
					C292.687,452.716,292.682,452.721,292.135,452.721z"/>
			</g>
			<g>
				<path style="fill:#FFFFFF;" d="M272.966,435.325v1.831h3.165v1.412h-3.165v1.831h3.518v1.412h-5.007v-7.897h5.007v1.412H272.966
					z"/>
				<path style="fill:#FFFFFF;" d="M277.852,441.81v-7.897h2.779c0.375,0,0.726,0.061,1.053,0.182
					c0.327,0.121,0.612,0.292,0.855,0.513c0.243,0.221,0.434,0.483,0.574,0.789c0.14,0.305,0.209,0.642,0.209,1.009
					c0,0.375-0.07,0.715-0.209,1.02c-0.14,0.305-0.331,0.568-0.574,0.789c-0.243,0.221-0.528,0.392-0.855,0.513
					c-0.327,0.121-0.678,0.182-1.053,0.182h-1.29v2.901H277.852z M280.653,437.498c0.389,0,0.684-0.11,0.882-0.331
					c0.199-0.22,0.298-0.474,0.298-0.761c0-0.14-0.024-0.276-0.072-0.408c-0.048-0.132-0.121-0.248-0.221-0.347
					c-0.099-0.1-0.222-0.178-0.37-0.237c-0.147-0.059-0.32-0.089-0.518-0.089h-1.312v2.173H280.653z"/>
				<path style="fill:#FFFFFF;" d="M286.797,441.987c-0.338,0-0.662-0.048-0.971-0.143c-0.309-0.095-0.592-0.239-0.849-0.43
					c-0.257-0.191-0.482-0.425-0.673-0.7c-0.191-0.276-0.342-0.597-0.452-0.965l1.401-0.551c0.103,0.397,0.283,0.726,0.541,0.987
					c0.257,0.261,0.595,0.392,1.015,0.392c0.154,0,0.303-0.02,0.447-0.061c0.143-0.04,0.272-0.099,0.386-0.176
					c0.114-0.077,0.204-0.175,0.27-0.292c0.066-0.118,0.1-0.254,0.1-0.408c0-0.147-0.026-0.279-0.077-0.397
					c-0.051-0.117-0.138-0.228-0.259-0.331c-0.121-0.103-0.279-0.202-0.474-0.298c-0.195-0.095-0.436-0.195-0.723-0.298
					l-0.485-0.176c-0.213-0.073-0.428-0.173-0.645-0.298c-0.217-0.125-0.414-0.276-0.59-0.452c-0.176-0.176-0.322-0.384-0.436-0.623
					c-0.114-0.239-0.171-0.509-0.171-0.81c0-0.309,0.061-0.597,0.182-0.866c0.121-0.268,0.294-0.503,0.518-0.706
					c0.224-0.202,0.493-0.36,0.805-0.474c0.312-0.114,0.66-0.171,1.042-0.171c0.397,0,0.741,0.053,1.031,0.16
					c0.29,0.107,0.537,0.243,0.739,0.408c0.202,0.165,0.365,0.348,0.491,0.546c0.125,0.199,0.217,0.386,0.276,0.563l-1.312,0.551
					c-0.074-0.221-0.208-0.419-0.403-0.596c-0.195-0.176-0.462-0.265-0.799-0.265c-0.324,0-0.592,0.076-0.805,0.226
					c-0.213,0.151-0.32,0.348-0.32,0.59c0,0.235,0.103,0.436,0.309,0.601c0.206,0.165,0.533,0.325,0.982,0.48l0.496,0.165
					c0.316,0.111,0.605,0.237,0.866,0.381c0.261,0.143,0.485,0.314,0.673,0.513c0.187,0.199,0.331,0.425,0.43,0.678
					c0.099,0.254,0.149,0.546,0.149,0.877c0,0.412-0.083,0.767-0.248,1.064c-0.165,0.298-0.377,0.543-0.634,0.734
					c-0.258,0.191-0.548,0.335-0.872,0.43C287.422,441.939,287.105,441.987,286.797,441.987z"/>
			</g>
			<g>
				<path style="fill:#FFFFFF;" d="M321.394,440.31l4.004-4.985h-3.827v-1.412h5.559v1.5l-3.96,4.985h4.004v1.412h-5.779V440.31z"/>
				<path style="fill:#FFFFFF;" d="M328.409,433.913h1.489v7.897h-1.489V433.913z"/>
				<path style="fill:#FFFFFF;" d="M331.486,441.81v-7.897h2.779c0.375,0,0.726,0.061,1.053,0.182
					c0.327,0.121,0.612,0.292,0.855,0.513c0.243,0.221,0.434,0.483,0.574,0.789c0.14,0.305,0.209,0.642,0.209,1.009
					c0,0.375-0.07,0.715-0.209,1.02c-0.14,0.305-0.331,0.568-0.574,0.789c-0.243,0.221-0.528,0.392-0.855,0.513
					c-0.327,0.121-0.678,0.182-1.053,0.182h-1.29v2.901H331.486z M334.288,437.498c0.389,0,0.684-0.11,0.882-0.331
					c0.199-0.22,0.298-0.474,0.298-0.761c0-0.14-0.024-0.276-0.072-0.408c-0.048-0.132-0.121-0.248-0.221-0.347
					c-0.099-0.1-0.222-0.178-0.37-0.237c-0.147-0.059-0.32-0.089-0.518-0.089h-1.312v2.173H334.288z"/>
			</g>
		</g>
		<g style="opacity:0.61;">
			<path style="fill:#FFFFFF;" d="M300.133,434.412h9.067v2.242h-9.067V434.412z M300.133,438.278h9.067v2.243h-9.067V438.278z"/>
		</g>
	</g>
	<g style="opacity:0.61;">
		<path style="fill:#FFFFFF;" d="M156.756,480.02h1.607c1.263,0,2.114,0.812,2.114,1.974c0,1.161-0.851,1.973-2.114,1.973h-1.607
			V480.02z M158.34,483.606c1.049,0,1.725-0.665,1.725-1.612c0-0.947-0.677-1.613-1.725-1.613h-1.167v3.225H158.34z"/>
		<path style="fill:#FFFFFF;" d="M165.139,481.993c0-1.15,0.879-2.007,2.075-2.007c1.184,0,2.069,0.851,2.069,2.007
			c0,1.156-0.885,2.007-2.069,2.007C166.019,484,165.139,483.143,165.139,481.993z M168.866,481.993
			c0-0.942-0.705-1.635-1.652-1.635c-0.953,0-1.663,0.693-1.663,1.635c0,0.941,0.71,1.635,1.663,1.635
			C168.162,483.628,168.866,482.935,168.866,481.993z"/>
		<path style="fill:#FFFFFF;" d="M179.596,480.02l-1.331,3.947h-0.44l-1.156-3.366l-1.161,3.366h-0.434l-1.331-3.947h0.429
			l1.139,3.394l1.178-3.394h0.389l1.161,3.411l1.156-3.411H179.596z"/>
		<path style="fill:#FFFFFF;" d="M187.731,480.02v3.947h-0.344l-2.537-3.202v3.202h-0.417v-3.947h0.344l2.543,3.203v-3.203H187.731z
			"/>
		<path style="fill:#FFFFFF;" d="M193.093,480.02h0.417v3.586h2.21v0.361h-2.627V480.02z"/>
		<path style="fill:#FFFFFF;" d="M200.061,481.993c0-1.15,0.879-2.007,2.075-2.007c1.184,0,2.069,0.851,2.069,2.007
			c0,1.156-0.885,2.007-2.069,2.007C200.941,484,200.061,483.143,200.061,481.993z M203.788,481.993
			c0-0.942-0.705-1.635-1.652-1.635c-0.953,0-1.663,0.693-1.663,1.635c0,0.941,0.71,1.635,1.663,1.635
			C203.083,483.628,203.788,482.935,203.788,481.993z"/>
		<path style="fill:#FFFFFF;" d="M211.636,482.912h-2.199l-0.474,1.054h-0.434l1.804-3.947h0.412l1.804,3.947h-0.44L211.636,482.912
			z M211.484,482.574l-0.947-2.12l-0.947,2.12H211.484z"/>
		<path style="fill:#FFFFFF;" d="M217.28,480.02h1.607c1.263,0,2.114,0.812,2.114,1.974c0,1.161-0.851,1.973-2.114,1.973h-1.607
			V480.02z M218.864,483.606c1.049,0,1.725-0.665,1.725-1.612c0-0.947-0.677-1.613-1.725-1.613h-1.167v3.225H218.864z"/>
		<path style="fill:#FFFFFF;" d="M234.041,482.912h-2.199l-0.474,1.054h-0.434l1.804-3.947h0.412l1.804,3.947h-0.44L234.041,482.912
			z M233.889,482.574l-0.947-2.12l-0.947,2.12H233.889z"/>
		<path style="fill:#FFFFFF;" d="M239.685,480.02h0.417v3.586h2.21v0.361h-2.627V480.02z"/>
		<path style="fill:#FFFFFF;" d="M247.082,480.02h0.417v3.586h2.21v0.361h-2.627V480.02z"/>
		<path style="fill:#FFFFFF;" d="M260.449,480.38v1.551h2.041v0.361h-2.041v1.675h-0.417v-3.947h2.706v0.361H260.449z"/>
		<path style="fill:#FFFFFF;" d="M267.678,480.02h0.417v3.947h-0.417V480.02z"/>
		<path style="fill:#FFFFFF;" d="M273.456,480.02h0.417v3.586h2.21v0.361h-2.627V480.02z"/>
		<path style="fill:#FFFFFF;" d="M283.644,483.606v0.361h-2.791v-3.947h2.706v0.361h-2.289v1.404h2.041v0.355h-2.041v1.466H283.644z
			"/>
		<path style="fill:#FFFFFF;" d="M294.672,480.38v1.551h2.041v0.361h-2.041v1.675h-0.417v-3.947h2.706v0.361H294.672z"/>
		<path style="fill:#FFFFFF;" d="M301.5,481.993c0-1.15,0.879-2.007,2.075-2.007c1.184,0,2.069,0.851,2.069,2.007
			c0,1.156-0.885,2.007-2.069,2.007C302.379,484,301.5,483.143,301.5,481.993z M305.226,481.993c0-0.942-0.705-1.635-1.652-1.635
			c-0.953,0-1.663,0.693-1.663,1.635c0,0.941,0.71,1.635,1.663,1.635C304.522,483.628,305.226,482.935,305.226,481.993z"/>
		<path style="fill:#FFFFFF;" d="M313.351,483.966l-0.902-1.269c-0.102,0.011-0.203,0.017-0.316,0.017h-1.06v1.252h-0.417v-3.947
			h1.477c1.004,0,1.613,0.507,1.613,1.353c0,0.62-0.327,1.054-0.902,1.24l0.964,1.353H313.351z M313.328,481.373
			c0-0.632-0.417-0.992-1.207-0.992h-1.048v1.979h1.048C312.911,482.359,313.328,481.993,313.328,481.373z"/>
		<path style="fill:#FFFFFF;" d="M322.907,480.02v3.947h-0.4v-3.158l-1.551,2.656h-0.197l-1.551-2.639v3.14h-0.4v-3.947h0.344
			l1.714,2.926l1.697-2.926H322.907z"/>
		<path style="fill:#FFFFFF;" d="M330.744,482.912h-2.199l-0.473,1.054h-0.434l1.804-3.947h0.411l1.804,3.947h-0.44L330.744,482.912
			z M330.592,482.574l-0.947-2.12l-0.947,2.12H330.592z"/>
		<path style="fill:#FFFFFF;" d="M336.957,480.38h-1.387v-0.361h3.192v0.361h-1.387v3.586h-0.417V480.38z"/>
		<path style="fill:#FFFFFF;" d="M343.063,483.487l0.164-0.321c0.282,0.276,0.784,0.479,1.302,0.479c0.739,0,1.06-0.31,1.06-0.699
			c0-1.083-2.43-0.417-2.43-1.877c0-0.581,0.451-1.083,1.455-1.083c0.446,0,0.908,0.13,1.224,0.35l-0.141,0.333
			c-0.338-0.22-0.733-0.327-1.083-0.327c-0.722,0-1.043,0.321-1.043,0.716c0,1.083,2.43,0.429,2.43,1.866
			c0,0.581-0.462,1.077-1.472,1.077C343.937,484,343.356,483.792,343.063,483.487z"/>
	</g>
</g>
<g>
</g>
<g>
	<path style="fill:#FD0902;" d="M57.46,424.738c-3.025-6.028-4.576-12.434-4.753-19.157c-0.368-13.941-0.63-27.884-1.027-41.824
		c-0.702-24.631-1.365-49.264-2.384-73.884c-0.187-4.516-1.115-8.906-3.243-12.965c-3.898-7.434-10.176-10.968-18.438-11.192
		c-2.589-0.07-2.59-0.012-2.59-2.564c0-9.048,0.017-18.096-0.024-27.143c-0.005-1.043,0.272-1.33,1.317-1.314
		c12.014,0.192,20.275-7.348,22.413-19.269c0.585-3.263,0.717-6.553,0.819-9.845c0.76-24.429,1.512-48.859,2.218-73.29
		c0.35-12.091,0.591-24.185,0.895-36.277c0.196-7.796,1.751-15.248,5.662-22.094c0.171-0.299,0.383-0.575,0.575-0.861
		c0.821,0.18,0.669,0.908,0.761,1.447c0.832,4.882,2.019,9.663,3.976,14.229c2.903,6.77,6.784,12.843,12.395,17.738
		c1.357,1.184,2.748,2.302,4.204,3.349c0.447,0.322,0.911,0.618,1.143,1.15c-0.023,12.591,0.01,25.182-0.084,37.773
		c-0.112,15.04-0.3,30.079-0.521,45.117c-0.114,7.793-0.26,15.588-0.59,23.374c-0.339,8.005-2.291,15.503-7.96,21.565
		c-4.192,4.482-9.404,7.341-15.177,9.231c-2.4,0.786-4.844,1.436-7.621,2.252c3.578,0.747,6.729,1.709,9.802,2.899
		c8.722,3.377,15.414,8.919,18.75,17.915c1.541,4.155,2.14,8.511,2.259,12.922c0.883,32.919,1.124,65.846,1.156,98.775
		c-0.291,0.545-0.746,0.916-1.25,1.261c-10.264,7.026-16.698,16.733-19.972,28.629c-0.995,3.615-1.81,7.272-2.092,11.027
		C58.048,424.128,58.102,424.661,57.46,424.738z"/>
	<path style="fill:#FD0902;" d="M418.607,384.213c0.002-8.095-0.029-16.189,0.012-24.284c0.125-24.636,0.419-49.27,1-73.9
		c0.123-5.208,0.595-10.368,2.353-15.325c2.959-8.344,8.946-13.742,16.86-17.243c3.29-1.456,6.709-2.531,10.211-3.348
		c0.418-0.097,0.825-0.238,1.538-0.446c-4.907-0.993-9.334-2.452-13.567-4.522c-10.332-5.052-15.75-13.491-16.91-24.74
		c-0.924-8.956-0.712-17.97-0.884-26.958c-0.489-25.532-0.649-51.068-0.655-76.605c0-0.449,0.016-0.899,0.025-1.348
		c0.365-0.488,0.848-0.823,1.364-1.143c11.018-6.826,17.808-16.768,21.362-29.075c0.608-2.107,1.164-4.231,1.516-6.402
		c0.088-0.546,0.213-1.089,0.8-1.348c2.468,5.821,3.545,11.919,3.705,18.215c0.619,24.277,1.22,48.554,1.908,72.828
		c0.395,13.935,0.901,27.867,1.45,41.796c0.17,4.315,1.093,8.52,3.114,12.387c4.076,7.801,10.697,11.438,19.361,11.462
		c1.534,0.004,1.844,0.395,1.833,1.868c-0.074,9.244-0.057,18.49-0.012,27.734c0.006,1.151-0.241,1.456-1.457,1.432
		c-11.457-0.227-20.095,7.188-22.261,18.929c-0.611,3.311-0.724,6.651-0.829,9.99c-0.764,24.422-1.514,48.844-2.221,73.268
		c-0.35,12.087-0.603,24.177-0.894,36.266c-0.139,5.78-1.069,11.415-3.053,16.859c-0.72-0.23-0.73-0.896-0.846-1.457
		c-1.384-6.674-3.911-12.886-7.562-18.635c-3.981-6.27-9.216-11.247-15.636-14.976C419.622,385.143,419.004,384.824,418.607,384.213
		z"/>
	<path style="fill:#FEAA00;" d="M418.607,384.213c6.394,3.241,11.658,7.809,15.88,13.584c4.663,6.379,7.656,13.497,9.306,21.203
		c0.114,0.531,0.319,1.043,0.482,1.564c-3.607,9.565-10.199,16.535-18.911,21.617c-8.622,5.03-18.023,7.731-27.831,9.268
		c-6.384,1-12.793,1.305-19.237,1.303c-1.336,0-1.881-0.3-1.865-1.813c0.084-7.746,0.07-15.494,0.005-23.241
		c-0.011-1.286,0.355-1.584,1.581-1.497c3.087,0.218,6.181,0.482,9.28,0.32c6.862-0.358,13.584-1.343,19.625-4.931
		c6.538-3.883,10.426-9.597,11.356-17.168c0.715-5.819,0.08-11.677,0.263-17.515C418.569,386.009,418.585,385.111,418.607,384.213z"
		/>
	<path style="fill:#FEAA00;" d="M443.629,77.529c-0.56,2.319-1.055,4.657-1.69,6.955c-3.416,12.369-9.943,22.565-20.873,29.648
		c-0.789,0.511-1.65,0.912-2.478,1.364c-0.176-5.493-0.049-10.986-0.028-16.48c0.045-11.74-6.865-20.596-18.619-24.032
		c-5.811-1.699-11.749-2.092-17.753-1.857c-1.595,0.062-3.202-0.072-4.783,0.258c-1.007,0.211-1.024-0.44-1.022-1.152
		c0.009-3.548,0.004-7.097,0.004-10.645c0-4.498,0.007-8.996-0.004-13.494c-0.002-0.76,0.004-1.298,1.07-1.316
		c12.9-0.221,25.54,1.268,37.715,5.735c8.256,3.03,15.677,7.399,21.584,14.053C439.652,69.833,442.01,73.452,443.629,77.529z"/>
	<path style="fill:#FEAA00;" d="M57.46,424.738c0.525-3.334,0.937-6.684,1.739-9.975c2.659-10.916,7.824-20.342,16.364-27.785
		c1.81-1.578,3.79-2.923,5.83-4.184c0.007,6.243-0.104,12.489,0.047,18.728c0.244,10.081,4.865,17.448,14.069,21.781
		c4.981,2.345,10.299,3.306,15.752,3.506c3.64,0.134,7.295,0.259,10.922-0.256c1.149-0.163,1.444,0.252,1.438,1.371
		c-0.042,7.945-0.041,15.891-0.002,23.836c0.005,1.079-0.258,1.459-1.41,1.473c-12.747,0.151-25.236-1.407-37.272-5.746
		c-8.613-3.105-16.302-7.715-22.319-14.767C60.552,430.301,58.647,427.742,57.46,424.738z"/>
	<path style="fill:#8D8E8E;" d="M185.714,152.771c3.336,0,3.336,0,3.336,3.405c0,3.309,0,3.309-3.277,3.309
		c-3.362,0-3.362,0-3.362-3.405C182.41,152.771,182.41,152.771,185.714,152.771z"/>
	<path style="fill:#8D8E8E;" d="M182.41,183.711c0-3.405,0-3.405,3.448-3.405c3.191,0,3.191,0,3.191,3.197
		c0,3.581,0,3.581-3.298,3.581C182.41,187.084,182.41,187.084,182.41,183.711z"/>
	<path style="fill:#8D8E8E;" d="M189.06,212.384c0,3.282,0,3.282-3.255,3.282c-3.378,0-3.378,0-3.378-3.32
		c0-3.282,0-3.282,3.266-3.282C189.06,209.065,189.06,209.065,189.06,212.384z"/>
	<path style="fill:#8D8E8E;" d="M192.326,185.304c0.123-1.235,0.086-2.502,0.005-3.742c-0.064-1.005,0.305-1.278,1.278-1.267
		c4.047,0.043,8.093,0.016,12.134,0.016h22.029c11.242,0,22.478,0.027,33.714-0.037c1.422-0.005,1.817,0.417,1.705,1.759
		c-0.107,1.288-0.064,2.598-0.011,3.892c0.032,0.77-0.251,1.112-1.01,1.112c-0.497,0-0.994,0.037-1.491,0.037
		c-22.178,0.005-44.357-0.011-66.535,0.037C192.716,187.111,192.177,186.769,192.326,185.304z"/>
	<path style="fill:#8D8E8E;" d="M192.326,157.614c0.128-1.187,0.091-2.4,0.005-3.592c-0.075-1.032,0.342-1.278,1.288-1.267
		c3.603,0.043,7.2,0.016,10.798,0.016h56.523c2.224,0,2.224,0.011,2.224,2.165c0.005,1.053-0.075,2.106,0.021,3.148
		c0.107,1.101-0.406,1.417-1.368,1.39c-0.401-0.011-0.802,0.011-1.197,0.011c-22.141,0-44.282-0.021-66.418,0.037
		C192.663,159.523,192.161,159.127,192.326,157.614z"/>
	<path style="fill:#8D8E8E;" d="M262.844,215.394c-0.968,0.962-3.132,0.262-4.768,0.262c-21.077,0.016-42.16,0.011-63.237,0.011
		c-2.475,0-2.475,0-2.475-2.405c0-0.796,0.08-1.609-0.021-2.395c-0.176-1.401,0.257-1.855,1.759-1.839
		c7.591,0.086,15.181,0.037,22.772,0.037h11.092c11.236,0,22.472,0.016,33.714-0.021c1.117,0,1.652,0.203,1.518,1.454
		C263.015,212.17,263.886,214.357,262.844,215.394z"/>
	<path style="fill:#8D8E8E;" d="M182.41,129.139c-0.128-1.272,0.235-1.716,1.609-1.689c5.196,0.086,10.392,0.032,15.587,0.032
		h23.232c12.84,0,25.68,0.021,38.52-0.032c1.374-0.005,2.031,0.23,1.828,1.759c-0.203,1.566,0.658,3.624-0.342,4.608
		c-0.919,0.909-2.945,0.257-4.48,0.257c-24.68,0.011-49.36,0.011-74.04,0.011c-1.892,0-1.892-0.005-1.892-1.951
		C182.426,131.133,182.507,130.128,182.41,129.139z"/>
	<path style="fill:#8D8E8E;" d="M278.565,169.909c0.005-18.592,0.005-37.178,0-55.769c0-1.149,0.032-2.293-0.294-3.421
		c-1.358-4.704-5.11-7.526-10.103-7.526c-30.491-0.005-60.976,0-91.467,0c-6.746,0-10.948,4.17-10.948,10.932
		c-0.011,37.231-0.005,74.468,0,111.699c0,6.548,4.218,10.787,10.782,10.793c30.491,0.011,60.976,0.005,91.467,0.005
		c1.155,0,2.283-0.155,3.394-0.46c3.801-1.042,7.227-4.602,7.206-10.178C278.512,207.295,278.565,188.602,278.565,169.909z
		 M267.623,232.216c-30.394-0.102-60.784-0.102-91.178,0.005c-3.859,0.011-6.308-2.908-6.286-6.361
		c0.102-18.645,0.048-37.29,0.048-55.93c0-18.747,0.005-37.488-0.011-56.235c-0.005-2.224,0.748-3.982,2.635-5.217
		c0.914-0.599,1.892-0.839,2.972-0.834c4.602,0.016,9.2,0.005,13.797,0.005h77.83c4.763,0,6.821,2.058,6.821,6.842
		c0,36.991-0.032,73.976,0.037,110.967C274.294,229.746,271.723,232.232,267.623,232.216z"/>
	<path style="fill:#8D8E8E;" d="M182.416,340.195c0-3.314,0-3.314,3.389-3.314c3.245,0,3.245,0,3.245,3.288
		c0,3.314,0,3.314-3.378,3.314C182.416,343.482,182.416,343.482,182.416,340.195z"/>
	<path style="fill:#8D8E8E;" d="M182.41,312.591c0-3.309,0-3.309,3.245-3.309c3.394,0,3.394,0,3.394,3.437
		c0,3.336,0,3.336-3.245,3.336C182.41,316.055,182.41,316.055,182.41,312.591z"/>
	<path style="fill:#8D8E8E;" d="M189.06,368.932c0,3.266,0,3.266-3.271,3.266c-3.362,0-3.362,0-3.362-3.341
		c0-3.261,0-3.261,3.282-3.261C189.06,365.597,189.06,365.597,189.06,368.932z"/>
	<path style="fill:#8D8E8E;" d="M192.326,314.339c0.107-1.294,0.064-2.598,0.011-3.897c-0.037-0.861,0.294-1.192,1.128-1.101
		c0.246,0.027,0.502,0,0.748,0h66.081c2.871,0,2.871,0.005,2.871,2.881c0,3.662,0,3.662-3.63,3.662h-31.913
		c-11.242,0-22.478-0.016-33.719,0.032C192.663,315.921,192.225,315.595,192.326,314.339z"/>
	<path style="fill:#8D8E8E;" d="M192.326,341.921c0.112-1.235,0.091-2.496,0.005-3.742c-0.075-1.09,0.369-1.32,1.379-1.315
		c22.681,0.021,45.362,0.027,68.037-0.005c1.101-0.005,1.534,0.251,1.443,1.406c-0.102,1.24-0.112,2.502,0,3.742
		c0.118,1.251-0.406,1.459-1.529,1.454c-11.338-0.032-22.676-0.021-34.019-0.021c-11.242,0-22.478-0.016-33.719,0.027
		C192.716,343.472,192.209,343.22,192.326,341.921z"/>
	<path style="fill:#8D8E8E;" d="M182.405,288.846c0.118-1.235,0.064-2.496,0.011-3.742c-0.037-0.866,0.31-1.187,1.133-1.096
		c0.246,0.027,0.502,0.005,0.748,0.005c25.69,0,51.376,0.011,77.061-0.032c1.39,0,2.015,0.257,1.834,1.775
		c-0.134,1.133-0.112,2.304,0,3.443c0.118,1.224-0.363,1.481-1.513,1.475c-12.941-0.037-25.883-0.021-38.824-0.021
		c-12.893,0-25.787-0.032-38.68,0.037C182.678,290.696,182.271,290.257,182.405,288.846z"/>
	<path style="fill:#8D8E8E;" d="M263.202,367.435c-0.112,1.037-0.096,2.106,0,3.143c0.091,1.074-0.235,1.604-1.363,1.534
		c-0.497-0.032-1,0.027-1.497,0.027c-22.045,0-44.09-0.016-66.134,0.043c-1.55,0-2.053-0.406-1.871-1.914
		c0.123-0.984,0.112-2.005,0.005-2.993c-0.139-1.299,0.262-1.684,1.62-1.673c8.847,0.069,17.694,0.037,26.546,0.037h7.345
		c11.199,0,22.398,0.032,33.591-0.043C262.951,365.586,263.357,366.03,263.202,367.435z"/>
	<path style="fill:#8D8E8E;" d="M278.565,326.329c0-18.688-0.102-37.381,0.064-56.074c0.053-6.201-5.367-10.579-10.611-10.557
		c-30.539,0.128-61.078,0.059-91.611,0.064c-6.377,0-10.648,4.223-10.654,10.595c-0.011,37.386-0.005,74.767-0.005,112.148
		c0,1.155,0.139,2.293,0.476,3.394c1.411,4.608,4.977,7.109,10.226,7.115c14.444,0.021,28.892,0.011,43.336,0.011
		c16.042,0,32.084-0.011,48.131,0.011c2.357,0,4.549-0.412,6.5-1.823c3.063-2.213,4.18-5.26,4.169-8.959
		C278.544,363.613,278.565,344.974,278.565,326.329z M267.756,388.689c-30.437,0.005-60.874,0.005-91.312,0
		c-4.057,0-6.238-2.213-6.238-6.334c-0.005-18.693,0-37.381,0-56.074v-55.775c0-4.212,2.111-6.34,6.345-6.34
		c30.336-0.005,60.677-0.005,91.012,0c4.57,0,6.682,2.138,6.682,6.709c0.005,37.082,0.005,74.163,0.005,111.25
		C274.246,386.546,272.134,388.689,267.756,388.689z"/>
	<path style="fill:#FEAA00;" d="M81.379,110.971c-6.82-4.148-11.813-9.998-15.623-16.911c-3.445-6.252-5.518-12.973-6.538-20.026
		c-0.05-0.348-0.076-0.694-0.319-0.975c1.002-2.321,2.598-4.229,4.258-6.083c7.181-8.018,16.359-12.691,26.515-15.652
		c6.596-1.923,13.315-3.208,20.194-3.667c3.937-0.263,7.865-0.532,11.813-0.537c1.34-0.001,1.891,0.347,1.875,1.857
		c-0.083,7.645-0.038,15.291-0.038,22.936c0,2.083,0.009,1.928-2.081,1.782c-8.81-0.614-17.555-0.431-25.798,3.302
		c-8.067,3.653-12.795,9.883-13.966,18.714c-0.6,4.527-0.058,9.079-0.229,13.616C81.422,109.876,81.4,110.424,81.379,110.971z"/>
	<path style="fill:#8E8F8F;" d="M334.236,250.308c0,26.144-0.012,52.289,0.032,78.433c0.002,1.463-0.281,1.945-1.864,1.935
		c-11.748-0.075-23.496-0.063-35.244-0.01c-1.335,0.006-1.688-0.358-1.662-1.675c0.073-3.842,0.014-3.843,3.781-3.843
		c9.249,0,18.497-0.019,27.746,0.024c1.166,0.006,1.634-0.178,1.633-1.511c-0.036-48.889-0.035-97.778-0.004-146.668
		c0.001-1.234-0.307-1.595-1.568-1.589c-9.998,0.052-19.997,0.007-29.995,0.057c-1.247,0.006-1.607-0.328-1.589-1.581
		c0.056-3.895,0.004-3.896,3.907-3.896c10.998,0,21.997,0.036,32.995-0.041c1.577-0.011,1.87,0.462,1.867,1.932
		C334.224,198.019,334.236,224.163,334.236,250.308z"/>
	<path style="fill:#FEFEFE;" d="M185.714,152.771c3.336,0,3.336,0,3.336,3.405c0,3.309,0,3.309-3.277,3.309
		c-3.362,0-3.362,0-3.362-3.405C182.41,152.771,182.41,152.771,185.714,152.771z"/>
	<path style="fill:#FEFEFE;" d="M182.41,183.711c0-3.405,0-3.405,3.448-3.405c3.191,0,3.191,0,3.191,3.197
		c0,3.581,0,3.581-3.298,3.581C182.41,187.084,182.41,187.084,182.41,183.711z"/>
	<path style="fill:#FEFEFE;" d="M189.06,212.384c0,3.282,0,3.282-3.255,3.282c-3.378,0-3.378,0-3.378-3.32
		c0-3.282,0-3.282,3.266-3.282C189.06,209.065,189.06,209.065,189.06,212.384z"/>
	<path style="fill:#FEFEFE;" d="M192.326,185.304c0.123-1.235,0.086-2.502,0.005-3.742c-0.064-1.005,0.305-1.278,1.278-1.267
		c4.047,0.043,8.093,0.016,12.134,0.016h22.029c11.242,0,22.478,0.027,33.714-0.037c1.422-0.005,1.817,0.417,1.705,1.759
		c-0.107,1.288-0.064,2.598-0.011,3.892c0.032,0.77-0.251,1.112-1.01,1.112c-0.497,0-0.994,0.037-1.491,0.037
		c-22.178,0.005-44.357-0.011-66.535,0.037C192.716,187.111,192.177,186.769,192.326,185.304z"/>
	<path style="fill:#FEFEFE;" d="M192.326,157.614c0.128-1.187,0.091-2.4,0.005-3.592c-0.075-1.032,0.342-1.278,1.288-1.267
		c3.603,0.043,7.2,0.016,10.798,0.016h56.523c2.224,0,2.224,0.011,2.224,2.165c0.005,1.053-0.075,2.106,0.021,3.148
		c0.107,1.101-0.406,1.417-1.368,1.39c-0.401-0.011-0.802,0.011-1.197,0.011c-22.141,0-44.282-0.021-66.418,0.037
		C192.663,159.523,192.161,159.127,192.326,157.614z"/>
	<path style="fill:#FEFEFE;" d="M262.844,215.394c-0.968,0.962-3.132,0.262-4.768,0.262c-21.077,0.016-42.16,0.011-63.237,0.011
		c-2.475,0-2.475,0-2.475-2.405c0-0.796,0.08-1.609-0.021-2.395c-0.176-1.401,0.257-1.855,1.759-1.839
		c7.591,0.086,15.181,0.037,22.772,0.037h11.092c11.236,0,22.472,0.016,33.714-0.021c1.117,0,1.652,0.203,1.518,1.454
		C263.015,212.17,263.886,214.357,262.844,215.394z"/>
	<path style="fill:#FEFEFE;" d="M182.41,129.139c-0.128-1.272,0.235-1.716,1.609-1.689c5.196,0.086,10.392,0.032,15.587,0.032
		h23.232c12.84,0,25.68,0.021,38.52-0.032c1.374-0.005,2.031,0.23,1.828,1.759c-0.203,1.566,0.658,3.624-0.342,4.608
		c-0.919,0.909-2.945,0.257-4.48,0.257c-24.68,0.011-49.36,0.011-74.04,0.011c-1.892,0-1.892-0.005-1.892-1.951
		C182.426,131.133,182.507,130.128,182.41,129.139z"/>
	<path style="fill:#FEFEFE;" d="M182.416,340.195c0-3.314,0-3.314,3.389-3.314c3.245,0,3.245,0,3.245,3.288
		c0,3.314,0,3.314-3.378,3.314C182.416,343.482,182.416,343.482,182.416,340.195z"/>
	<path style="fill:#FEFEFE;" d="M182.41,312.591c0-3.309,0-3.309,3.245-3.309c3.394,0,3.394,0,3.394,3.437
		c0,3.336,0,3.336-3.245,3.336C182.41,316.055,182.41,316.055,182.41,312.591z"/>
	<path style="fill:#FEFEFE;" d="M189.06,368.932c0,3.266,0,3.266-3.271,3.266c-3.362,0-3.362,0-3.362-3.341
		c0-3.261,0-3.261,3.282-3.261C189.06,365.597,189.06,365.597,189.06,368.932z"/>
	<path style="fill:#FEFEFE;" d="M192.326,314.339c0.107-1.294,0.064-2.598,0.011-3.897c-0.037-0.861,0.294-1.192,1.128-1.101
		c0.246,0.027,0.502,0,0.748,0h66.081c2.871,0,2.871,0.005,2.871,2.881c0,3.662,0,3.662-3.63,3.662h-31.913
		c-11.242,0-22.478-0.016-33.719,0.032C192.663,315.921,192.225,315.595,192.326,314.339z"/>
	<path style="fill:#FEFEFE;" d="M192.326,341.921c0.112-1.235,0.091-2.496,0.005-3.742c-0.075-1.09,0.369-1.32,1.379-1.315
		c22.681,0.021,45.362,0.027,68.037-0.005c1.101-0.005,1.534,0.251,1.443,1.406c-0.102,1.24-0.112,2.502,0,3.742
		c0.118,1.251-0.406,1.459-1.529,1.454c-11.338-0.032-22.676-0.021-34.019-0.021c-11.242,0-22.478-0.016-33.719,0.027
		C192.716,343.472,192.209,343.22,192.326,341.921z"/>
	<path style="fill:#FEFEFE;" d="M182.405,288.846c0.118-1.235,0.064-2.496,0.011-3.742c-0.037-0.866,0.31-1.187,1.133-1.096
		c0.246,0.027,0.502,0.005,0.748,0.005c25.69,0,51.376,0.011,77.061-0.032c1.39,0,2.015,0.257,1.834,1.775
		c-0.134,1.133-0.112,2.304,0,3.443c0.118,1.224-0.363,1.481-1.513,1.475c-12.941-0.037-25.883-0.021-38.824-0.021
		c-12.893,0-25.787-0.032-38.68,0.037C182.678,290.696,182.271,290.257,182.405,288.846z"/>
	<path style="fill:#FEFEFE;" d="M263.202,370.579c0.091,1.074-0.235,1.604-1.363,1.534c-0.497-0.032-1,0.027-1.497,0.027
		c-22.045,0-44.09-0.016-66.134,0.043c-1.55,0-2.053-0.406-1.871-1.914c0.123-0.984,0.112-2.005,0.005-2.993
		c-0.139-1.299,0.262-1.684,1.62-1.673c8.847,0.069,17.694,0.037,26.546,0.037h7.345c11.199,0,22.398,0.032,33.591-0.043
		c1.507-0.011,1.914,0.433,1.759,1.839C263.09,368.472,263.106,369.542,263.202,370.579z"/>
	<path style="fill:#8D8E8E;" d="M262.844,133.816c-0.919,0.909-2.945,0.257-4.48,0.257c-24.68,0.011-49.36,0.011-74.04,0.011
		c-1.892,0-1.892-0.005-1.892-1.951c-0.005-1,0.075-2.005-0.021-2.993c-0.128-1.272,0.235-1.716,1.609-1.689
		c5.196,0.086,10.392,0.032,15.587,0.032h23.232c12.84,0,25.68,0.021,38.52-0.032c1.374-0.005,2.031,0.23,1.828,1.759
		C262.983,130.775,263.844,132.833,262.844,133.816z"/>
	<path style="fill:#8E8F8F;" d="M263.191,182.032c-0.107,1.288-0.064,2.598-0.011,3.892c0.032,0.77-0.251,1.112-1.01,1.112
		c-0.497,0-0.994,0.037-1.491,0.037c-22.178,0.005-44.357-0.011-66.535,0.037c-1.427,0-1.967-0.342-1.817-1.807
		c0.123-1.235,0.086-2.502,0.005-3.742c-0.064-1.005,0.305-1.278,1.278-1.267c4.047,0.043,8.093,0.016,12.134,0.016h22.029
		c11.242,0,22.478,0.027,33.714-0.037C262.908,180.268,263.304,180.691,263.191,182.032z"/>
	<path style="fill:#8E8F8F;" d="M261.818,159.475c-0.401-0.011-0.802,0.011-1.197,0.011c-22.141,0-44.282-0.021-66.418,0.037
		c-1.54,0-2.042-0.396-1.876-1.908c0.128-1.187,0.091-2.4,0.005-3.592c-0.075-1.032,0.342-1.278,1.288-1.267
		c3.603,0.043,7.2,0.016,10.798,0.016h56.523c2.224,0,2.224,0.011,2.224,2.165c0.005,1.053-0.075,2.106,0.021,3.148
		C263.293,159.186,262.78,159.501,261.818,159.475z"/>
	<path style="fill:#8D8E8E;" d="M262.844,215.394c-0.968,0.962-3.132,0.262-4.768,0.262c-21.077,0.016-42.16,0.011-63.237,0.011
		c-2.475,0-2.475,0-2.475-2.405c0-0.796,0.08-1.609-0.021-2.395c-0.176-1.401,0.257-1.855,1.759-1.839
		c7.591,0.086,15.181,0.037,22.772,0.037h11.092c11.236,0,22.472,0.016,33.714-0.021c1.117,0,1.652,0.203,1.518,1.454
		C263.015,212.17,263.886,214.357,262.844,215.394z"/>
	<path style="fill:#909191;" d="M189.049,183.502c0,3.581,0,3.581-3.298,3.581c-3.341,0-3.341,0-3.341-3.373
		c0-3.405,0-3.405,3.448-3.405C189.049,180.306,189.049,180.306,189.049,183.502z"/>
	<path style="fill:#8F9090;" d="M189.049,156.176c0,3.309,0,3.309-3.277,3.309c-3.362,0-3.362,0-3.362-3.405
		c0-3.309,0-3.309,3.304-3.309C189.049,152.771,189.049,152.771,189.049,156.176z"/>
	<path style="fill:#8E8F8F;" d="M189.06,212.384c0,3.282,0,3.282-3.255,3.282c-3.378,0-3.378,0-3.378-3.32
		c0-3.282,0-3.282,3.266-3.282C189.06,209.065,189.06,209.065,189.06,212.384z"/>
	<path style="fill:#8D8E8E;" d="M263.191,289.199c0.118,1.224-0.363,1.481-1.513,1.475c-12.941-0.037-25.883-0.021-38.824-0.021
		c-12.893,0-25.787-0.032-38.68,0.037c-1.497,0.005-1.903-0.433-1.769-1.844c0.118-1.235,0.064-2.496,0.011-3.742
		c-0.037-0.866,0.31-1.187,1.133-1.096c0.246,0.027,0.502,0.005,0.748,0.005c25.69,0,51.376,0.011,77.061-0.032
		c1.39,0,2.015,0.257,1.834,1.775C263.058,286.89,263.079,288.06,263.191,289.199z"/>
	<path style="fill:#8E8F8F;" d="M261.663,343.461c-11.338-0.032-22.676-0.021-34.019-0.021c-11.242,0-22.478-0.016-33.719,0.027
		c-1.208,0.005-1.716-0.246-1.598-1.545c0.112-1.235,0.091-2.496,0.005-3.742c-0.075-1.09,0.369-1.32,1.379-1.315
		c22.681,0.021,45.362,0.027,68.037-0.005c1.101-0.005,1.534,0.251,1.443,1.406c-0.102,1.24-0.112,2.502,0,3.742
		C263.309,343.258,262.785,343.466,261.663,343.461z"/>
	<path style="fill:#8E8F8F;" d="M263.165,312.222c0,3.662,0,3.662-3.63,3.662h-31.913c-11.242,0-22.478-0.016-33.719,0.032
		c-1.24,0.005-1.678-0.321-1.577-1.577c0.107-1.294,0.064-2.598,0.011-3.897c-0.037-0.861,0.294-1.192,1.128-1.101
		c0.246,0.027,0.502,0,0.748,0h66.081C263.165,309.341,263.165,309.346,263.165,312.222z"/>
	<path style="fill:#8E8F8F;" d="M263.202,370.579c0.091,1.074-0.235,1.604-1.363,1.534c-0.497-0.032-1,0.027-1.497,0.027
		c-22.045,0-44.09-0.016-66.134,0.043c-1.55,0-2.053-0.406-1.871-1.914c0.123-0.984,0.112-2.005,0.005-2.993
		c-0.139-1.299,0.262-1.684,1.62-1.673c8.847,0.069,17.694,0.037,26.546,0.037h7.345c11.199,0,22.398,0.032,33.591-0.043
		c1.507-0.011,1.914,0.433,1.759,1.839C263.09,368.472,263.106,369.542,263.202,370.579z"/>
	<path style="fill:#909191;" d="M189.049,312.719c0,3.336,0,3.336-3.245,3.336c-3.394,0-3.394,0-3.394-3.464
		c0-3.309,0-3.309,3.245-3.309C189.049,309.282,189.049,309.282,189.049,312.719z"/>
	<path style="fill:#8F9090;" d="M189.049,340.168c0,3.314,0,3.314-3.378,3.314c-3.255,0-3.255,0-3.255-3.288
		c0-3.314,0-3.314,3.389-3.314C189.049,336.881,189.049,336.881,189.049,340.168z"/>
	<path style="fill:#8E8F8F;" d="M189.06,368.932c0,3.266,0,3.266-3.271,3.266c-3.362,0-3.362,0-3.362-3.341
		c0-3.261,0-3.261,3.282-3.261C189.06,365.597,189.06,365.597,189.06,368.932z"/>
</g>
</svg>
