<?xml version="1.0" encoding="UTF-8" ?>
<!DOCTYPE svg PUBLIC "-//W3C//DTD SVG 1.1//EN" "http://www.w3.org/Graphics/SVG/1.1/DTD/svg11.dtd">
<svg width="500pt" height="292pt" viewBox="0 0 500 292" version="1.1" xmlns="http://www.w3.org/2000/svg">
<g id="#000000ff">
<path fill="#000000" opacity="1.00" d=" M 265.42 0.00 L 265.45 0.00 C 278.02 16.94 290.60 33.87 303.18 50.80 C 277.33 50.83 251.48 50.86 225.64 50.79 C 238.95 33.90 252.12 16.90 265.42 0.00 Z" />
<path fill="#000000" opacity="1.00" d=" M 358.56 39.21 C 368.85 27.42 379.10 15.58 389.52 3.92 C 399.74 15.72 410.12 27.38 420.33 39.20 C 399.74 39.23 379.15 39.22 358.56 39.21 Z" />
<path fill="#000000" opacity="1.00" d=" M 75.01 233.51 C 104.09 233.49 133.17 233.49 162.26 233.51 C 147.11 253.05 131.66 272.36 116.66 292.00 L 116.32 292.00 C 102.84 272.32 88.68 253.08 75.01 233.51 Z" />
<path fill="#000000" opacity="1.00" d=" M 332.14 245.15 C 339.90 245.15 347.66 245.09 355.42 245.19 C 351.48 250.14 347.61 255.14 343.73 260.14 C 339.58 255.38 336.05 250.11 332.14 245.15 Z" />
</g>
<g id="#1d00ffff">
<path fill="#1d00ff" opacity="1.00" d=" M 0.00 74.30 C 9.84 74.31 19.67 74.28 29.51 74.31 C 61.72 119.68 94.00 164.99 126.23 210.34 C 116.39 210.38 106.54 210.34 96.70 210.36 C 72.54 176.35 48.31 142.37 24.19 108.32 C 24.07 142.33 24.18 176.34 24.13 210.35 C 16.09 210.39 8.04 210.30 0.00 210.40 L 0.00 74.30 Z" />
<path fill="#1d00ff" opacity="1.00" d=" M 102.11 74.29 C 110.11 74.27 118.11 74.35 126.11 74.25 C 126.32 95.62 126.14 117.01 126.20 138.38 C 118.17 138.39 110.14 138.39 102.11 138.39 C 102.11 117.02 102.10 95.66 102.11 74.29 Z" />
<path fill="#1d00ff" opacity="1.00" d=" M 154.76 97.71 C 167.45 83.05 186.58 74.32 205.95 74.10 C 219.20 73.90 233.02 76.23 244.18 83.78 C 249.56 87.35 254.27 91.89 258.19 97.01 C 253.47 103.12 248.67 109.17 243.94 115.27 C 235.03 104.31 221.04 97.88 206.97 97.76 C 196.80 97.90 186.63 101.31 178.70 107.74 C 169.35 115.16 163.09 126.47 162.20 138.41 C 154.13 138.16 146.06 138.38 138.00 138.29 C 138.91 123.40 144.83 108.87 154.76 97.71 Z" />
<path fill="#1d00ff" opacity="1.00" d=" M 426.98 76.32 C 435.81 74.27 444.99 73.56 454.04 74.22 C 465.57 75.03 477.46 78.90 485.53 87.52 C 492.18 94.36 495.06 104.02 495.17 113.39 C 487.07 113.43 478.97 113.42 470.88 113.40 C 470.83 108.12 468.48 102.82 464.07 99.77 C 457.03 94.69 447.83 94.36 439.51 95.21 C 434.13 95.91 428.35 97.37 424.50 101.45 C 421.50 104.73 420.42 109.22 420.21 113.55 C 413.94 106.33 407.64 99.14 401.33 91.97 C 407.95 84.23 417.11 78.76 426.98 76.32 Z" />
<path fill="#1d00ff" opacity="1.00" d=" M 284.97 114.33 C 292.08 114.28 299.20 114.27 306.31 114.33 C 330.56 146.35 354.85 178.35 379.16 210.33 C 372.06 210.38 364.96 210.35 357.86 210.35 C 349.20 199.06 340.66 187.67 332.02 176.35 C 323.44 187.70 314.83 199.03 306.22 210.36 C 299.12 210.34 292.02 210.39 284.93 210.33 C 297.09 194.34 309.23 178.33 321.36 162.31 C 309.26 146.30 297.09 130.33 284.97 114.33 Z" />
<path fill="#1d00ff" opacity="1.00" d=" M 334.09 148.45 C 342.32 136.89 350.31 125.17 358.61 113.66 C 365.69 113.73 372.77 113.64 379.85 113.71 C 371.73 125.23 363.55 136.71 355.60 148.35 C 348.43 148.59 341.26 148.40 334.09 148.45 Z" />
<path fill="#1d00ff" opacity="1.00" d=" M 395.75 113.71 C 403.88 113.66 412.02 113.71 420.16 113.68 C 420.47 117.57 422.97 120.75 426.12 122.87 C 435.22 128.92 446.55 129.06 456.86 131.48 C 468.79 134.40 481.57 137.46 490.60 146.37 C 496.40 151.90 499.42 159.71 500.00 167.60 L 500.00 173.88 C 499.18 183.30 494.61 192.28 487.18 198.18 C 475.94 207.23 461.03 209.97 446.96 210.41 C 431.77 210.96 415.65 207.28 404.16 196.83 C 396.06 189.66 391.47 178.98 391.35 168.21 C 399.37 168.19 407.40 168.21 415.43 168.20 C 415.63 175.50 420.29 182.01 426.61 185.40 C 435.17 190.32 445.43 190.22 454.95 189.19 C 461.30 188.39 468.08 186.36 472.19 181.12 C 477.21 174.67 476.83 164.02 470.20 158.78 C 463.84 153.58 455.51 152.02 447.75 150.09 C 433.95 146.67 418.91 145.44 407.05 136.84 C 399.62 131.60 396.40 122.45 395.75 113.71 Z" />
<path fill="#1d00ff" opacity="1.00" d=" M 225.61 138.32 C 241.43 138.26 257.25 138.27 273.07 138.31 C 273.96 154.80 268.85 171.58 258.73 184.65 C 247.89 199.00 230.95 208.55 213.00 210.08 C 182.63 212.92 152.40 193.09 141.24 165.01 C 148.26 156.39 154.94 147.50 161.82 138.78 C 162.71 147.20 164.54 155.72 169.04 163.04 C 176.87 176.80 191.86 187.07 208.05 186.64 C 223.68 186.42 238.13 176.13 244.64 162.12 C 231.90 162.06 219.17 162.12 206.44 162.08 C 212.76 154.11 219.24 146.26 225.61 138.32 Z" />
</g>
</svg>
