<?xml version="1.0" encoding="UTF-8" ?>
<!DOCTYPE svg PUBLIC "-//W3C//DTD SVG 1.1//EN" "http://www.w3.org/Graphics/SVG/1.1/DTD/svg11.dtd">
<svg width="1200pt" height="437pt" viewBox="0 0 1200 437" version="1.1" xmlns="http://www.w3.org/2000/svg">
<g id="#c73636ff">
<path fill="#c73636" opacity="1.00" d=" M 0.00 0.00 L 1200.00 0.00 L 1200.00 437.00 L 0.00 437.00 L 0.00 0.00 M 468.37 151.96 C 468.68 184.83 468.42 217.70 468.50 250.56 C 491.40 250.47 514.31 250.45 537.21 250.56 C 537.16 254.71 537.20 258.86 537.11 263.02 C 561.01 262.99 584.91 262.99 608.82 263.01 C 608.75 258.84 608.79 254.67 608.76 250.50 C 650.00 250.58 691.24 250.37 732.48 250.60 C 732.39 217.66 732.56 184.72 732.40 151.78 C 644.39 152.10 556.38 151.74 468.37 151.96 Z" />
<path fill="#c73636" opacity="1.00" d=" M 476.09 159.59 C 559.02 159.55 641.94 159.46 724.86 159.64 C 724.69 187.16 724.70 214.69 724.85 242.22 C 683.39 242.32 641.92 242.20 600.46 242.28 C 600.49 246.95 600.42 251.63 600.56 256.30 C 582.21 256.38 563.86 256.14 545.51 256.42 C 545.27 251.75 545.35 247.06 545.54 242.39 C 522.41 242.08 499.28 242.35 476.15 242.25 C 476.19 214.70 476.29 187.14 476.09 159.59 M 490.31 173.51 C 490.36 191.86 490.38 210.21 490.30 228.55 C 499.46 228.56 508.63 228.49 517.79 228.59 C 517.78 214.90 517.96 201.20 517.69 187.51 C 522.34 187.08 527.01 187.38 531.68 187.30 C 531.52 201.04 531.71 214.79 531.58 228.54 C 536.21 228.54 540.85 228.59 545.48 228.49 C 545.34 210.19 545.39 191.88 545.46 173.58 C 527.07 173.45 508.69 173.59 490.31 173.51 M 559.25 173.50 C 559.18 196.41 559.37 219.32 559.15 242.22 C 568.37 242.27 577.58 242.26 586.80 242.21 C 586.65 237.65 586.75 233.08 586.68 228.52 C 595.92 228.55 605.16 228.57 614.40 228.51 C 614.30 210.20 614.30 191.89 614.39 173.57 C 596.01 173.45 577.63 173.61 559.25 173.50 M 628.10 173.42 C 628.10 191.81 628.16 210.20 628.07 228.59 C 637.28 228.49 646.49 228.54 655.69 228.57 C 655.61 214.86 655.81 201.15 655.57 187.44 C 660.14 187.11 664.72 187.44 669.30 187.21 C 669.42 200.99 669.38 214.76 669.32 228.54 C 673.98 228.52 678.65 228.63 683.32 228.46 C 683.16 214.74 683.32 201.01 683.24 187.28 C 687.80 187.30 692.36 187.33 696.93 187.24 C 697.02 201.02 696.79 214.81 697.04 228.59 C 701.59 228.50 706.15 228.54 710.71 228.56 C 710.75 210.22 710.66 191.87 710.75 173.53 C 683.20 173.45 655.65 173.68 628.10 173.42 Z" />
<path fill="#c73636" opacity="1.00" d=" M 586.59 187.45 C 591.19 187.10 595.80 187.44 600.41 187.20 C 600.74 196.29 600.20 205.40 600.68 214.49 C 596.07 215.03 591.42 214.50 586.80 214.81 C 586.55 205.69 586.93 196.57 586.59 187.45 Z" />
</g>
<g id="#fefefeff">
<path fill="#fefefe" opacity="1.00" d=" M 468.37 151.96 C 556.38 151.74 644.39 152.10 732.40 151.78 C 732.56 184.72 732.39 217.66 732.48 250.60 C 691.24 250.37 650.00 250.58 608.76 250.50 C 608.79 254.67 608.75 258.84 608.82 263.01 C 584.91 262.99 561.01 262.99 537.11 263.02 C 537.20 258.86 537.16 254.71 537.21 250.56 C 514.31 250.45 491.40 250.47 468.50 250.56 C 468.42 217.70 468.68 184.83 468.37 151.96 M 476.09 159.59 C 476.29 187.14 476.19 214.70 476.15 242.25 C 499.28 242.35 522.41 242.08 545.54 242.39 C 545.35 247.06 545.27 251.75 545.51 256.42 C 563.86 256.14 582.21 256.38 600.56 256.30 C 600.42 251.63 600.49 246.95 600.46 242.28 C 641.92 242.20 683.39 242.32 724.85 242.22 C 724.70 214.69 724.69 187.16 724.86 159.64 C 641.94 159.46 559.02 159.55 476.09 159.59 Z" />
<path fill="#fefefe" opacity="1.00" d=" M 490.31 173.51 C 508.69 173.59 527.07 173.45 545.46 173.58 C 545.39 191.88 545.34 210.19 545.48 228.49 C 540.85 228.59 536.21 228.54 531.58 228.54 C 531.71 214.79 531.52 201.04 531.68 187.30 C 527.01 187.38 522.34 187.08 517.69 187.51 C 517.96 201.20 517.78 214.90 517.79 228.59 C 508.63 228.49 499.46 228.56 490.30 228.55 C 490.38 210.21 490.36 191.86 490.31 173.51 Z" />
<path fill="#fefefe" opacity="1.00" d=" M 559.25 173.50 C 577.63 173.61 596.01 173.45 614.39 173.57 C 614.30 191.89 614.30 210.20 614.40 228.51 C 605.16 228.57 595.92 228.55 586.68 228.52 C 586.75 233.08 586.65 237.65 586.80 242.21 C 577.58 242.26 568.37 242.27 559.15 242.22 C 559.37 219.32 559.18 196.41 559.25 173.50 M 586.59 187.45 C 586.93 196.57 586.55 205.69 586.80 214.81 C 591.42 214.50 596.07 215.03 600.68 214.49 C 600.20 205.40 600.74 196.29 600.41 187.20 C 595.80 187.44 591.19 187.10 586.59 187.45 Z" />
<path fill="#fefefe" opacity="1.00" d=" M 628.10 173.42 C 655.65 173.68 683.20 173.45 710.75 173.53 C 710.66 191.87 710.75 210.22 710.71 228.56 C 706.15 228.54 701.59 228.50 697.04 228.59 C 696.79 214.81 697.02 201.02 696.93 187.24 C 692.36 187.33 687.80 187.30 683.24 187.28 C 683.32 201.01 683.16 214.74 683.32 228.46 C 678.65 228.63 673.98 228.52 669.32 228.54 C 669.38 214.76 669.42 200.99 669.30 187.21 C 664.72 187.44 660.14 187.11 655.57 187.44 C 655.81 201.15 655.61 214.86 655.69 228.57 C 646.49 228.54 637.28 228.49 628.07 228.59 C 628.16 210.20 628.10 191.81 628.10 173.42 Z" />
</g>
</svg>
